<svg width="60" height="60" viewBox="0 0 60 60" fill="none" xmlns="http://www.w3.org/2000/svg">
<path d="M39.243 14.7998C39.243 14.2475 38.7953 13.7998 38.243 13.7998H34.4157C32.2819 13.7998 30.2355 14.6545 28.7267 16.1759C27.2179 17.6973 26.3702 19.7607 26.3702 21.9123V26.7798H22.543C21.9907 26.7798 21.543 27.2275 21.543 27.7798V32.2698C21.543 32.8221 21.9907 33.2698 22.543 33.2698H26.3702V45.2498C26.3702 45.8021 26.818 46.2498 27.3702 46.2498H31.8066C32.3589 46.2498 32.8066 45.8021 32.8066 45.2498V33.2698H36.8515C37.3111 33.2698 37.7115 32.9565 37.8221 32.5105L38.9354 28.0205C39.0917 27.3898 38.6145 26.7798 37.9648 26.7798H32.8066V21.9123C32.8066 21.482 32.9761 21.0693 33.2779 20.765C33.5797 20.4607 33.9889 20.2898 34.4157 20.2898H38.243C38.7953 20.2898 39.243 19.8421 39.243 19.2898V14.7998Z" fill="#EEEEEE"/>
</svg>
