<svg width="60" height="60" viewBox="0 0 60 60" fill="none" xmlns="http://www.w3.org/2000/svg">
<path d="M43.9376 22.3637C44.1441 21.6778 43.9376 21.1748 42.9612 21.1748H39.7265C38.9034 21.1748 38.5273 21.6099 38.3208 22.0878C38.3208 22.0878 36.6762 26.0984 34.3457 28.6988C33.5934 29.4555 33.2498 29.6944 32.8397 29.6944C32.6347 29.6944 32.3367 29.4555 32.3367 28.7696V22.3637C32.3367 21.5406 32.0993 21.1748 31.4134 21.1748H26.3305C25.8172 21.1748 25.5075 21.5554 25.5075 21.9182C25.5075 22.697 26.6727 22.877 26.7922 25.0718V29.8331C26.7922 30.8759 26.6049 31.0662 26.1919 31.0662C25.096 31.0662 22.4292 27.0409 20.8465 22.433C20.5382 21.5377 20.227 21.1763 19.401 21.1763H16.1678C15.243 21.1763 15.0586 21.6114 15.0586 22.0893C15.0586 22.9478 16.1545 27.1958 20.1636 32.814C22.8363 36.6505 26.599 38.7303 30.0269 38.7303C32.0816 38.7303 32.3353 38.2686 32.3353 37.4721V34.5722C32.3353 33.6489 32.5314 33.463 33.1819 33.463C33.6598 33.463 34.4829 33.7049 36.4018 35.5531C38.5937 37.745 38.9565 38.7288 40.1882 38.7288H43.4214C44.3447 38.7288 44.8064 38.2671 44.5409 37.3556C44.2503 36.4484 43.2031 35.1283 41.8136 33.5663C41.0584 32.6754 39.93 31.7166 39.5864 31.2373C39.107 30.6192 39.2456 30.3464 39.5864 29.7977C39.5878 29.7991 43.5276 24.2502 43.9376 22.3637Z" fill="#EEEEEE"/>
</svg>
