<svg width="40" height="40" viewBox="0 0 40 40" fill="none" xmlns="http://www.w3.org/2000/svg">
<path d="M20.0025 14.3595C16.881 14.3595 14.3632 16.8778 14.3632 20C14.3632 23.1222 16.881 25.6405 20.0025 25.6405C23.1239 25.6405 25.6417 23.1222 25.6417 20C25.6417 16.8778 23.1239 14.3595 20.0025 14.3595ZM20.0025 23.6671C17.9853 23.6671 16.3362 22.0225 16.3362 20C16.3362 17.9775 17.9804 16.3329 20.0025 16.3329C22.0245 16.3329 23.6687 17.9775 23.6687 20C23.6687 22.0225 22.0196 23.6671 20.0025 23.6671V23.6671ZM27.1877 14.1288C27.1877 14.8602 26.5988 15.4444 25.8724 15.4444C25.1411 15.4444 24.5571 14.8553 24.5571 14.1288C24.5571 13.4022 25.146 12.8131 25.8724 12.8131C26.5988 12.8131 27.1877 13.4022 27.1877 14.1288ZM30.9227 15.464C30.8393 13.7017 30.4368 12.1406 29.146 10.8544C27.8601 9.56822 26.2994 9.16568 24.5374 9.07732C22.7215 8.97423 17.2785 8.97423 15.4626 9.07732C13.7055 9.16077 12.1448 9.56332 10.854 10.8495C9.56319 12.1357 9.16564 13.6968 9.0773 15.4591C8.97423 17.2755 8.97423 22.7196 9.0773 24.536C9.16074 26.2983 9.56319 27.8594 10.854 29.1456C12.1448 30.4318 13.7006 30.8343 15.4626 30.9227C17.2785 31.0258 22.7215 31.0258 24.5374 30.9227C26.2994 30.8392 27.8601 30.4367 29.146 29.1456C30.4319 27.8594 30.8344 26.2983 30.9227 24.536C31.0258 22.7196 31.0258 17.2804 30.9227 15.464V15.464ZM28.5767 26.4849C28.1939 27.4471 27.4528 28.1883 26.4859 28.5761C25.038 29.1505 21.6025 29.018 20.0025 29.018C18.4025 29.018 14.962 29.1456 13.519 28.5761C12.5571 28.1932 11.816 27.452 11.4282 26.4849C10.854 25.0367 10.9865 21.6004 10.9865 20C10.9865 18.3996 10.8589 14.9584 11.4282 13.5151C11.811 12.5529 12.5521 11.8117 13.519 11.4239C14.9669 10.8495 18.4025 10.982 20.0025 10.982C21.6025 10.982 25.0429 10.8544 26.4859 11.4239C27.4479 11.8068 28.189 12.548 28.5767 13.5151C29.1509 14.9633 29.0184 18.3996 29.0184 20C29.0184 21.6004 29.1509 25.0416 28.5767 26.4849Z" fill="black" stroke="black" stroke-width="0.5"/>
<rect x="1.5" y="1.5" width="37" height="37" rx="18.5" stroke="black" stroke-width="3"/>
</svg>
