<svg width="40" height="40" viewBox="0 0 40 40" fill="none" xmlns="http://www.w3.org/2000/svg">
<rect x="1.5" y="1.5" width="37" height="37" rx="18.5" stroke="black" stroke-width="3"/>
<path d="M26 10C26 9.44772 25.5523 9 25 9H22.7273C21.2806 9 19.8933 9.57946 18.8703 10.6109C17.8474 11.6424 17.2727 13.0413 17.2727 14.5V17.8H15C14.4477 17.8 14 18.2477 14 18.8V21.2C14 21.7523 14.4477 22.2 15 22.2H17.2727V30C17.2727 30.5523 17.7204 31 18.2727 31H20.6364C21.1886 31 21.6364 30.5523 21.6364 30V22.2H24.1267C24.5863 22.2 24.9868 21.8867 25.0974 21.4406L25.6924 19.0406C25.8488 18.41 25.3716 17.8 24.7218 17.8H21.6364V14.5C21.6364 14.2083 21.7513 13.9285 21.9559 13.7222C22.1605 13.5159 22.4379 13.4 22.7273 13.4H25C25.5523 13.4 26 12.9523 26 12.4V10Z" fill="black"/>
</svg>
