<svg width="249" height="104" viewBox="0 0 249 104" fill="none" xmlns="http://www.w3.org/2000/svg">
<path d="M69.2501 83.288H65.7221V90.8H64.7261V82.4H70.2461V90.8H69.2501V83.288Z" fill="white"/>
<path d="M71.7654 87.8C71.7654 86.832 72.0174 86.068 72.5214 85.508C73.0254 84.94 73.7454 84.656 74.6814 84.656C75.1854 84.656 75.6174 84.74 75.9774 84.908C76.3454 85.068 76.6494 85.288 76.8894 85.568C77.1294 85.848 77.3054 86.18 77.4174 86.564C77.5374 86.948 77.5974 87.36 77.5974 87.8C77.5974 88.28 77.5334 88.716 77.4054 89.108C77.2774 89.492 77.0894 89.82 76.8414 90.092C76.5934 90.364 76.2854 90.576 75.9174 90.728C75.5574 90.872 75.1454 90.944 74.6814 90.944C74.1854 90.944 73.7534 90.864 73.3854 90.704C73.0174 90.536 72.7134 90.312 72.4734 90.032C72.2334 89.752 72.0534 89.42 71.9334 89.036C71.8214 88.652 71.7654 88.24 71.7654 87.8ZM72.7614 87.8C72.7614 88.08 72.7934 88.36 72.8574 88.64C72.9294 88.92 73.0414 89.172 73.1934 89.396C73.3454 89.62 73.5414 89.8 73.7814 89.936C74.0294 90.072 74.3294 90.14 74.6814 90.14C75.3214 90.14 75.8014 89.944 76.1214 89.552C76.4494 89.152 76.6134 88.568 76.6134 87.8C76.6134 87.512 76.5774 87.232 76.5054 86.96C76.4414 86.68 76.3294 86.428 76.1694 86.204C76.0174 85.98 75.8174 85.8 75.5694 85.664C75.3294 85.528 75.0334 85.46 74.6814 85.46C74.0414 85.46 73.5614 85.656 73.2414 86.048C72.9214 86.44 72.7614 87.024 72.7614 87.8Z" fill="white"/>
<path d="M81.1687 88.088H80.5087V90.8H79.5847V84.8H80.5087V87.368H81.1687L83.5327 84.8H84.6607L82.0087 87.644L84.1927 89.996H84.9727V90.8H83.7367L81.1687 88.088Z" fill="white"/>
<path d="M86.768 85.268C87.112 85.068 87.5 84.924 87.932 84.836C88.364 84.748 88.788 84.704 89.204 84.704C89.612 84.704 89.944 84.768 90.2 84.896C90.464 85.024 90.668 85.192 90.812 85.4C90.964 85.6 91.064 85.832 91.112 86.096C91.168 86.352 91.196 86.612 91.196 86.876C91.196 87.18 91.188 87.504 91.172 87.848C91.156 88.192 91.144 88.536 91.136 88.88C91.136 89.28 91.16 89.66 91.208 90.02H92.012V90.8H90.416L90.308 89.9H90.248C90.2 89.972 90.128 90.064 90.032 90.176C89.936 90.288 89.808 90.4 89.648 90.512C89.496 90.616 89.308 90.708 89.084 90.788C88.86 90.868 88.596 90.908 88.292 90.908C87.7 90.908 87.232 90.756 86.888 90.452C86.544 90.148 86.372 89.732 86.372 89.204C86.372 88.796 86.46 88.456 86.636 88.184C86.82 87.912 87.08 87.704 87.416 87.56C87.752 87.416 88.156 87.332 88.628 87.308C89.108 87.284 89.644 87.316 90.236 87.404C90.276 87.036 90.28 86.732 90.248 86.492C90.224 86.244 90.16 86.048 90.056 85.904C89.96 85.76 89.82 85.66 89.636 85.604C89.46 85.54 89.24 85.508 88.976 85.508C88.616 85.508 88.272 85.56 87.944 85.664C87.616 85.76 87.324 85.86 87.068 85.964L86.768 85.268ZM88.532 90.104C88.756 90.104 88.964 90.068 89.156 89.996C89.348 89.924 89.516 89.832 89.66 89.72C89.804 89.608 89.924 89.488 90.02 89.36C90.116 89.224 90.188 89.096 90.236 88.976V88.136C89.82 88.064 89.436 88.028 89.084 88.028C88.732 88.028 88.428 88.068 88.172 88.148C87.916 88.22 87.716 88.336 87.572 88.496C87.428 88.656 87.356 88.864 87.356 89.12C87.356 89.384 87.444 89.616 87.62 89.816C87.804 90.008 88.108 90.104 88.532 90.104Z" fill="white"/>
<path d="M105.071 88.136H101.843V90.8H100.919V84.8H101.843V87.296H105.071V84.8H106.007V90.8H105.071V88.136Z" fill="white"/>
<path d="M113.406 90.044C113.262 90.172 113.09 90.292 112.89 90.404C112.698 90.516 112.486 90.612 112.254 90.692C112.022 90.772 111.778 90.832 111.522 90.872C111.274 90.92 111.022 90.944 110.766 90.944C110.286 90.944 109.862 90.872 109.494 90.728C109.126 90.576 108.818 90.364 108.57 90.092C108.322 89.812 108.134 89.48 108.006 89.096C107.878 88.712 107.814 88.28 107.814 87.8C107.814 87.296 107.882 86.848 108.018 86.456C108.162 86.064 108.366 85.736 108.63 85.472C108.894 85.208 109.214 85.008 109.59 84.872C109.966 84.728 110.386 84.656 110.85 84.656C111.186 84.656 111.518 84.7 111.846 84.788C112.174 84.876 112.462 85.044 112.71 85.292C112.966 85.532 113.162 85.868 113.298 86.3C113.434 86.724 113.482 87.276 113.442 87.956H108.798C108.798 88.676 108.99 89.216 109.374 89.576C109.766 89.928 110.286 90.104 110.934 90.104C111.15 90.104 111.362 90.08 111.57 90.032C111.786 89.976 111.99 89.912 112.182 89.84C112.374 89.768 112.542 89.688 112.686 89.6C112.838 89.512 112.954 89.432 113.034 89.36L113.406 90.044ZM110.874 85.448C110.61 85.448 110.358 85.476 110.118 85.532C109.886 85.588 109.678 85.684 109.494 85.82C109.318 85.948 109.17 86.12 109.05 86.336C108.938 86.544 108.866 86.804 108.834 87.116H112.566C112.526 86.588 112.354 86.18 112.05 85.892C111.754 85.596 111.362 85.448 110.874 85.448Z" fill="white"/>
<path d="M122.733 85.364L122.721 85.328C122.857 85.248 123.001 85.172 123.153 85.1C123.313 85.02 123.489 84.952 123.681 84.896C123.881 84.832 124.105 84.78 124.353 84.74C124.601 84.7 124.885 84.68 125.205 84.68C125.533 84.68 125.837 84.716 126.117 84.788C126.397 84.852 126.641 84.948 126.849 85.076C127.057 85.204 127.217 85.364 127.329 85.556C127.449 85.74 127.509 85.952 127.509 86.192C127.509 86.32 127.481 86.456 127.425 86.6C127.377 86.736 127.301 86.868 127.197 86.996C127.093 87.124 126.969 87.24 126.825 87.344C126.681 87.448 126.517 87.528 126.333 87.584V87.632C126.861 87.72 127.229 87.888 127.437 88.136C127.653 88.384 127.761 88.712 127.761 89.12C127.761 89.376 127.701 89.612 127.581 89.828C127.461 90.044 127.281 90.232 127.041 90.392C126.809 90.552 126.517 90.68 126.165 90.776C125.821 90.864 125.417 90.908 124.953 90.908C124.609 90.908 124.297 90.876 124.017 90.812C123.737 90.748 123.489 90.668 123.273 90.572C123.065 90.476 122.885 90.372 122.733 90.26C122.589 90.148 122.477 90.044 122.397 89.948L122.877 89.192C122.965 89.288 123.073 89.392 123.201 89.504C123.329 89.608 123.485 89.704 123.669 89.792C123.861 89.88 124.077 89.956 124.317 90.02C124.565 90.076 124.849 90.104 125.169 90.104C125.393 90.104 125.601 90.084 125.793 90.044C125.993 89.996 126.165 89.932 126.309 89.852C126.461 89.764 126.581 89.656 126.669 89.528C126.757 89.392 126.801 89.236 126.801 89.06C126.801 88.756 126.661 88.524 126.381 88.364C126.109 88.204 125.657 88.124 125.025 88.124H124.341V87.344H125.193C125.353 87.344 125.513 87.32 125.673 87.272C125.833 87.216 125.977 87.148 126.105 87.068C126.233 86.98 126.337 86.88 126.417 86.768C126.497 86.648 126.537 86.524 126.537 86.396C126.537 86.236 126.497 86.1 126.417 85.988C126.337 85.868 126.225 85.772 126.081 85.7C125.945 85.628 125.781 85.576 125.589 85.544C125.405 85.504 125.209 85.484 125.001 85.484C124.681 85.484 124.401 85.516 124.161 85.58C123.921 85.636 123.717 85.708 123.549 85.796V86.792H122.733V85.364Z" fill="white"/>
<path d="M133.852 88.136H130.624V90.8H129.7V84.8H130.624V87.296H133.852V84.8H134.788V90.8H133.852V88.136Z" fill="white"/>
<path d="M137.135 85.268C137.479 85.068 137.867 84.924 138.299 84.836C138.731 84.748 139.155 84.704 139.571 84.704C139.979 84.704 140.311 84.768 140.567 84.896C140.831 85.024 141.035 85.192 141.179 85.4C141.331 85.6 141.431 85.832 141.479 86.096C141.535 86.352 141.563 86.612 141.563 86.876C141.563 87.18 141.555 87.504 141.539 87.848C141.523 88.192 141.511 88.536 141.503 88.88C141.503 89.28 141.527 89.66 141.575 90.02H142.379V90.8H140.783L140.675 89.9H140.615C140.567 89.972 140.495 90.064 140.399 90.176C140.303 90.288 140.175 90.4 140.015 90.512C139.863 90.616 139.675 90.708 139.451 90.788C139.227 90.868 138.963 90.908 138.659 90.908C138.067 90.908 137.599 90.756 137.255 90.452C136.911 90.148 136.739 89.732 136.739 89.204C136.739 88.796 136.827 88.456 137.003 88.184C137.187 87.912 137.447 87.704 137.783 87.56C138.119 87.416 138.523 87.332 138.995 87.308C139.475 87.284 140.011 87.316 140.603 87.404C140.643 87.036 140.647 86.732 140.615 86.492C140.591 86.244 140.527 86.048 140.423 85.904C140.327 85.76 140.187 85.66 140.003 85.604C139.827 85.54 139.607 85.508 139.343 85.508C138.983 85.508 138.639 85.56 138.311 85.664C137.983 85.76 137.691 85.86 137.435 85.964L137.135 85.268ZM138.899 90.104C139.123 90.104 139.331 90.068 139.523 89.996C139.715 89.924 139.883 89.832 140.027 89.72C140.171 89.608 140.291 89.488 140.387 89.36C140.483 89.224 140.555 89.096 140.603 88.976V88.136C140.187 88.064 139.803 88.028 139.451 88.028C139.099 88.028 138.795 88.068 138.539 88.148C138.283 88.22 138.083 88.336 137.939 88.496C137.795 88.656 137.723 88.864 137.723 89.12C137.723 89.384 137.811 89.616 137.987 89.816C138.171 90.008 138.475 90.104 138.899 90.104Z" fill="white"/>
<path d="M147.679 90.944C147.279 90.944 146.943 90.88 146.671 90.752C146.407 90.616 146.195 90.428 146.035 90.188C145.875 89.94 145.759 89.644 145.687 89.3C145.615 88.956 145.571 88.572 145.555 88.148H144.583V90.8H143.623V84.8H144.583V87.308H145.567C145.591 86.876 145.647 86.496 145.735 86.168C145.823 85.84 145.951 85.564 146.119 85.34C146.287 85.116 146.499 84.948 146.755 84.836C147.019 84.716 147.335 84.656 147.703 84.656C148.111 84.656 148.447 84.732 148.711 84.884C148.983 85.028 149.195 85.24 149.347 85.52C149.507 85.792 149.619 86.124 149.683 86.516C149.747 86.9 149.779 87.328 149.779 87.8C149.779 88.808 149.619 89.584 149.299 90.128C148.987 90.672 148.447 90.944 147.679 90.944ZM146.491 87.8C146.491 88.112 146.503 88.408 146.527 88.688C146.551 88.968 146.603 89.212 146.683 89.42C146.763 89.628 146.883 89.796 147.043 89.924C147.203 90.044 147.423 90.104 147.703 90.104C147.927 90.104 148.111 90.06 148.255 89.972C148.399 89.876 148.507 89.736 148.579 89.552C148.659 89.36 148.711 89.12 148.735 88.832C148.767 88.544 148.783 88.2 148.783 87.8C148.783 87.488 148.771 87.192 148.747 86.912C148.731 86.632 148.687 86.388 148.615 86.18C148.543 85.972 148.431 85.808 148.279 85.688C148.135 85.56 147.939 85.496 147.691 85.496C147.443 85.496 147.239 85.544 147.079 85.64C146.927 85.728 146.807 85.868 146.719 86.06C146.631 86.244 146.571 86.484 146.539 86.78C146.507 87.068 146.491 87.408 146.491 87.8Z" fill="white"/>
<path d="M14.3882 86.8C14.3882 81.5533 18.6415 77.3 23.8882 77.3H41.8882C47.1349 77.3 51.3882 81.5533 51.3882 86.8C51.3882 92.0468 47.1349 96.3 41.8882 96.3H23.8882C18.6415 96.3 14.3882 92.0468 14.3882 86.8Z" fill="white" stroke="white" stroke-width="3"/>
<path fill-rule="evenodd" clip-rule="evenodd" d="M40.8862 91.8C43.6477 91.8 45.8862 89.5615 45.8862 86.8C45.8862 84.0386 43.6477 81.8 40.8862 81.8C38.1248 81.8 35.8862 84.0386 35.8862 86.8C35.8862 89.5615 38.1248 91.8 40.8862 91.8Z" fill="black" stroke="black" stroke-width="2"/>
<path d="M20.064 14.774H19.084V12.8H12.98V14.774H12V11.764H12.938C12.9753 11.652 13.0593 11.4047 13.19 11.022C13.33 10.6393 13.47 10.098 13.61 9.398C13.7593 8.698 13.8947 7.82067 14.016 6.766C14.1373 5.71133 14.198 4.456 14.198 3H19.014V11.764H20.064V14.774ZM17.852 11.764V4.036H15.29C15.262 5.06267 15.2013 5.98667 15.108 6.808C15.024 7.62933 14.926 8.35733 14.814 8.992C14.702 9.62667 14.5853 10.1727 14.464 10.63C14.352 11.0873 14.254 11.4653 14.17 11.764H17.852Z" fill="white"/>
<path d="M21.7945 6.346C22.1959 6.11267 22.6485 5.94467 23.1525 5.842C23.6565 5.73933 24.1512 5.688 24.6365 5.688C25.1125 5.688 25.4999 5.76267 25.7985 5.912C26.1065 6.06133 26.3445 6.25733 26.5125 6.5C26.6899 6.73333 26.8065 7.004 26.8625 7.312C26.9279 7.61067 26.9605 7.914 26.9605 8.222C26.9605 8.57667 26.9512 8.95467 26.9325 9.356C26.9139 9.75733 26.8999 10.1587 26.8905 10.56C26.8905 11.0267 26.9185 11.47 26.9745 11.89H27.9125V12.8H26.0505L25.9245 11.75H25.8545C25.7985 11.834 25.7145 11.9413 25.6025 12.072C25.4905 12.2027 25.3412 12.3333 25.1545 12.464C24.9772 12.5853 24.7579 12.6927 24.4965 12.786C24.2352 12.8793 23.9272 12.926 23.5725 12.926C22.8819 12.926 22.3359 12.7487 21.9345 12.394C21.5332 12.0393 21.3325 11.554 21.3325 10.938C21.3325 10.462 21.4352 10.0653 21.6405 9.748C21.8552 9.43067 22.1585 9.188 22.5505 9.02C22.9425 8.852 23.4139 8.754 23.9645 8.726C24.5245 8.698 25.1499 8.73533 25.8405 8.838C25.8872 8.40867 25.8919 8.054 25.8545 7.774C25.8265 7.48467 25.7519 7.256 25.6305 7.088C25.5185 6.92 25.3552 6.80333 25.1405 6.738C24.9352 6.66333 24.6785 6.626 24.3705 6.626C23.9505 6.626 23.5492 6.68667 23.1665 6.808C22.7839 6.92 22.4432 7.03667 22.1445 7.158L21.7945 6.346ZM23.8525 11.988C24.1139 11.988 24.3565 11.946 24.5805 11.862C24.8045 11.778 25.0005 11.6707 25.1685 11.54C25.3365 11.4093 25.4765 11.2693 25.5885 11.12C25.7005 10.9613 25.7845 10.812 25.8405 10.672V9.692C25.3552 9.608 24.9072 9.566 24.4965 9.566C24.0859 9.566 23.7312 9.61267 23.4325 9.706C23.1339 9.79 22.9005 9.92533 22.7325 10.112C22.5645 10.2987 22.4805 10.5413 22.4805 10.84C22.4805 11.148 22.5832 11.4187 22.7885 11.652C23.0032 11.876 23.3579 11.988 23.8525 11.988Z" fill="white"/>
<path d="M29.4051 5.8H36.3491V8.418H35.3971V6.752H33.4231V11.862H35.1171V12.8H30.5811V11.862H32.3311V6.752H30.3571V8.418H29.4051V5.8Z" fill="white"/>
<path d="M38.5836 6.346C38.9849 6.11267 39.4376 5.94467 39.9416 5.842C40.4456 5.73933 40.9403 5.688 41.4256 5.688C41.9016 5.688 42.2889 5.76267 42.5876 5.912C42.8956 6.06133 43.1336 6.25733 43.3016 6.5C43.4789 6.73333 43.5956 7.004 43.6516 7.312C43.7169 7.61067 43.7496 7.914 43.7496 8.222C43.7496 8.57667 43.7403 8.95467 43.7216 9.356C43.7029 9.75733 43.6889 10.1587 43.6796 10.56C43.6796 11.0267 43.7076 11.47 43.7636 11.89H44.7016V12.8H42.8396L42.7136 11.75H42.6436C42.5876 11.834 42.5036 11.9413 42.3916 12.072C42.2796 12.2027 42.1303 12.3333 41.9436 12.464C41.7663 12.5853 41.5469 12.6927 41.2856 12.786C41.0243 12.8793 40.7163 12.926 40.3616 12.926C39.6709 12.926 39.1249 12.7487 38.7236 12.394C38.3223 12.0393 38.1216 11.554 38.1216 10.938C38.1216 10.462 38.2243 10.0653 38.4296 9.748C38.6443 9.43067 38.9476 9.188 39.3396 9.02C39.7316 8.852 40.2029 8.754 40.7536 8.726C41.3136 8.698 41.9389 8.73533 42.6296 8.838C42.6763 8.40867 42.6809 8.054 42.6436 7.774C42.6156 7.48467 42.5409 7.256 42.4196 7.088C42.3076 6.92 42.1443 6.80333 41.9296 6.738C41.7243 6.66333 41.4676 6.626 41.1596 6.626C40.7396 6.626 40.3383 6.68667 39.9556 6.808C39.5729 6.92 39.2323 7.03667 38.9336 7.158L38.5836 6.346ZM40.6416 11.988C40.9029 11.988 41.1456 11.946 41.3696 11.862C41.5936 11.778 41.7896 11.6707 41.9576 11.54C42.1256 11.4093 42.2656 11.2693 42.3776 11.12C42.4896 10.9613 42.5736 10.812 42.6296 10.672V9.692C42.1443 9.608 41.6963 9.566 41.2856 9.566C40.8749 9.566 40.5203 9.61267 40.2216 9.706C39.9229 9.79 39.6896 9.92533 39.5216 10.112C39.3536 10.2987 39.2696 10.5413 39.2696 10.84C39.2696 11.148 39.3723 11.4187 39.5776 11.652C39.7923 11.876 40.1469 11.988 40.6416 11.988Z" fill="white"/>
<rect x="175.375" y="22.0403" width="65" height="37" stroke="white" stroke-width="3"/>
<path d="M226.877 38.5403L221.877 43.3022L216.877 38.5403" stroke="white" stroke-width="3"/>
<rect x="94.8003" y="22.0403" width="65" height="37" stroke="white" stroke-width="3"/>
<path d="M146.302 38.5403L141.302 43.3022L136.302 38.5403" stroke="white" stroke-width="3"/>
<rect x="14.2241" y="22.0403" width="65" height="37" stroke="white" stroke-width="3"/>
<path d="M65.7261 38.5403L60.7261 43.3022L55.7261 38.5403" stroke="white" stroke-width="3"/>
</svg>
