<svg width="210" height="229" viewBox="0 0 210 229" fill="none" xmlns="http://www.w3.org/2000/svg">
<path d="M109.707 79.9H114.647V80.862H110.786V83.592C110.933 83.566 111.115 83.54 111.332 83.514C111.549 83.488 111.757 83.475 111.956 83.475C112.398 83.475 112.818 83.5183 113.217 83.605C113.616 83.683 113.967 83.8217 114.27 84.021C114.573 84.2203 114.812 84.4933 114.985 84.84C115.167 85.178 115.258 85.607 115.258 86.127C115.258 86.647 115.167 87.0977 114.985 87.479C114.803 87.8517 114.56 88.1593 114.257 88.402C113.954 88.636 113.598 88.8137 113.191 88.935C112.792 89.0477 112.372 89.104 111.93 89.104C111.783 89.104 111.614 89.0997 111.423 89.091C111.241 89.091 111.046 89.0823 110.838 89.065C110.639 89.0477 110.439 89.026 110.24 89C110.049 88.9827 109.872 88.9523 109.707 88.909V79.9ZM112.06 88.168C112.337 88.168 112.602 88.1333 112.853 88.064C113.104 87.986 113.321 87.869 113.503 87.713C113.694 87.557 113.841 87.362 113.945 87.128C114.058 86.894 114.114 86.621 114.114 86.309C114.114 85.9103 114.049 85.5853 113.919 85.334C113.798 85.0827 113.633 84.892 113.425 84.762C113.217 84.6233 112.974 84.5323 112.697 84.489C112.428 84.437 112.147 84.411 111.852 84.411C111.774 84.411 111.683 84.4153 111.579 84.424C111.475 84.4327 111.371 84.4413 111.267 84.45C111.163 84.4587 111.068 84.4717 110.981 84.489C110.894 84.4977 110.829 84.5063 110.786 84.515V88.09C110.847 88.1073 110.925 88.1203 111.02 88.129C111.124 88.1377 111.232 88.1463 111.345 88.155C111.466 88.1637 111.588 88.168 111.709 88.168C111.83 88.168 111.947 88.168 112.06 88.168ZM122.819 82.968L122.897 81.668H122.819L122.065 83.124L118.685 89H117.658V79.9H118.737V86.01L118.672 87.297H118.75L119.491 85.841L122.871 79.9H123.898V89H122.819V82.968ZM126.077 84.45C126.077 82.942 126.341 81.7807 126.87 80.966C127.407 80.1513 128.23 79.744 129.34 79.744C129.946 79.744 130.458 79.8567 130.874 80.082C131.298 80.3073 131.641 80.628 131.901 81.044C132.161 81.4513 132.347 81.9453 132.46 82.526C132.572 83.098 132.629 83.7393 132.629 84.45C132.629 85.958 132.36 87.1193 131.823 87.934C131.294 88.7487 130.466 89.156 129.34 89.156C128.742 89.156 128.235 89.0433 127.819 88.818C127.403 88.5927 127.065 88.2763 126.805 87.869C126.545 87.453 126.358 86.959 126.246 86.387C126.133 85.8063 126.077 85.1607 126.077 84.45ZM127.221 84.45C127.221 84.9527 127.251 85.4293 127.312 85.88C127.381 86.3307 127.498 86.7293 127.663 87.076C127.827 87.414 128.044 87.687 128.313 87.895C128.581 88.0943 128.924 88.194 129.34 88.194C130.085 88.194 130.627 87.8907 130.965 87.284C131.311 86.6773 131.485 85.7327 131.485 84.45C131.485 83.956 131.45 83.4837 131.381 83.033C131.32 82.5737 131.207 82.175 131.043 81.837C130.878 81.4903 130.657 81.2173 130.38 81.018C130.102 80.81 129.756 80.706 129.34 80.706C128.603 80.706 128.066 81.0137 127.728 81.629C127.39 82.2357 127.221 83.176 127.221 84.45ZM134.938 79.9H141.178V82.279H140.216V80.862H137.265V88.038H139.306V89H134.938V88.038H136.186V80.862H134.938V79.9ZM143.903 79.991C144.232 79.913 144.587 79.861 144.969 79.835C145.35 79.809 145.727 79.796 146.1 79.796C146.498 79.796 146.901 79.835 147.309 79.913C147.725 79.991 148.102 80.134 148.44 80.342C148.778 80.55 149.051 80.836 149.259 81.2C149.475 81.564 149.584 82.0277 149.584 82.591C149.584 83.1457 149.484 83.6137 149.285 83.995C149.085 84.3763 148.821 84.6883 148.492 84.931C148.162 85.165 147.785 85.334 147.361 85.438C146.936 85.542 146.498 85.594 146.048 85.594C146.004 85.594 145.931 85.594 145.827 85.594C145.731 85.594 145.627 85.594 145.515 85.594C145.411 85.5853 145.307 85.5767 145.203 85.568C145.099 85.5593 145.025 85.5507 144.982 85.542V89H143.903V79.991ZM146.126 80.732C145.9 80.732 145.684 80.7363 145.476 80.745C145.268 80.7537 145.103 80.7753 144.982 80.81V84.58C145.025 84.5973 145.094 84.6103 145.19 84.619C145.285 84.619 145.385 84.6233 145.489 84.632C145.593 84.632 145.692 84.632 145.788 84.632C145.883 84.632 145.952 84.632 145.996 84.632C146.29 84.632 146.581 84.606 146.867 84.554C147.161 84.4933 147.426 84.3893 147.66 84.242C147.894 84.0947 148.08 83.8867 148.219 83.618C148.366 83.3493 148.44 83.007 148.44 82.591C148.44 82.2357 148.37 81.941 148.232 81.707C148.102 81.4643 147.924 81.2737 147.699 81.135C147.482 80.9877 147.235 80.8837 146.958 80.823C146.68 80.7623 146.403 80.732 146.126 80.732ZM156.78 86.478H153.283L152.451 89H151.385L154.427 79.9H155.701L158.769 89H157.638L156.78 86.478ZM153.621 85.542H156.481L155.142 81.265H154.986L153.621 85.542ZM163.106 88.155C162.725 88.155 162.348 88.1073 161.975 88.012C161.611 87.9167 161.286 87.739 161 87.479C160.714 87.2103 160.48 86.8333 160.298 86.348C160.125 85.8627 160.038 85.23 160.038 84.45C160.038 83.748 160.121 83.15 160.285 82.656C160.45 82.162 160.671 81.7633 160.948 81.46C161.226 81.148 161.551 80.9227 161.923 80.784C162.296 80.6453 162.69 80.576 163.106 80.576V79.64H164.185V80.576C164.558 80.576 164.926 80.6323 165.29 80.745C165.654 80.849 165.984 81.044 166.278 81.33C166.573 81.6073 166.811 81.9887 166.993 82.474C167.175 82.9507 167.266 83.566 167.266 84.32C167.266 85.0567 167.175 85.672 166.993 86.166C166.82 86.66 166.586 87.0543 166.291 87.349C166.005 87.6437 165.676 87.8517 165.303 87.973C164.939 88.0943 164.567 88.155 164.185 88.155V89.26H163.106V88.155ZM166.187 84.32C166.187 83.8173 166.14 83.3883 166.044 83.033C165.949 82.669 165.81 82.3743 165.628 82.149C165.455 81.9237 165.243 81.759 164.991 81.655C164.74 81.5423 164.458 81.486 164.146 81.486V87.258C164.458 87.258 164.74 87.2147 164.991 87.128C165.251 87.0327 165.468 86.8723 165.641 86.647C165.815 86.4217 165.949 86.1227 166.044 85.75C166.14 85.3687 166.187 84.892 166.187 84.32ZM161.117 84.45C161.117 84.97 161.156 85.4077 161.234 85.763C161.321 86.1183 161.447 86.4087 161.611 86.634C161.776 86.8507 161.984 87.011 162.235 87.115C162.495 87.2103 162.794 87.258 163.132 87.258V81.486C162.838 81.486 162.565 81.5337 162.313 81.629C162.071 81.7157 161.858 81.876 161.676 82.11C161.503 82.3353 161.364 82.6387 161.26 83.02C161.165 83.4013 161.117 83.878 161.117 84.45ZM174.268 82.968L174.346 81.668H174.268L173.514 83.124L170.134 89H169.107V79.9H170.186V86.01L170.121 87.297H170.199L170.94 85.841L174.32 79.9H175.347V89H174.268V82.968ZM183.402 89H182.323V85.243H180.984L178.722 89H177.448L179.97 85.074C179.719 85.0133 179.481 84.918 179.255 84.788C179.03 84.658 178.831 84.489 178.657 84.281C178.484 84.073 178.345 83.8303 178.241 83.553C178.146 83.267 178.098 82.9333 178.098 82.552C178.098 82.0233 178.185 81.5857 178.358 81.239C178.54 80.8837 178.783 80.602 179.086 80.394C179.398 80.1773 179.758 80.0257 180.165 79.939C180.581 79.8437 181.019 79.796 181.478 79.796C181.773 79.796 182.085 79.809 182.414 79.835C182.752 79.861 183.082 79.913 183.402 79.991V89ZM181.426 80.732C181.14 80.732 180.867 80.7623 180.607 80.823C180.347 80.875 180.113 80.9703 179.905 81.109C179.706 81.2477 179.546 81.434 179.424 81.668C179.303 81.902 179.242 82.1967 179.242 82.552C179.242 82.8813 179.299 83.163 179.411 83.397C179.533 83.631 179.693 83.826 179.892 83.982C180.092 84.1293 180.321 84.2377 180.581 84.307C180.85 84.3763 181.136 84.411 181.439 84.411H182.323V80.81C182.202 80.784 182.076 80.7667 181.946 80.758C181.816 80.7407 181.643 80.732 181.426 80.732Z" fill="white"/>
<rect x="87" y="69" width="119" height="31" rx="15.5" stroke="white" stroke-width="2"/>
<path d="M34.1062 172.955L34.2362 171.72H34.1712L33.5472 172.838L32.2212 175.061H31.8962L30.5052 172.825L29.9072 171.72H29.8422L29.9982 172.942V179H28.9452V169.9H29.9462L32.1042 173.358H32.1302L34.2102 169.9H35.1852V179H34.1062V172.955ZM38.2742 173.865H39.3532C39.3705 173.258 39.4268 172.704 39.5222 172.201C39.6262 171.698 39.7735 171.265 39.9642 170.901C40.1635 170.537 40.4148 170.255 40.7182 170.056C41.0215 169.848 41.3812 169.744 41.7972 169.744C42.2392 169.744 42.6118 169.852 42.9152 170.069C43.2272 170.286 43.4785 170.598 43.6692 171.005C43.8685 171.412 44.0115 171.906 44.0982 172.487C44.1848 173.068 44.2282 173.722 44.2282 174.45C44.2282 176.001 44.0202 177.176 43.6042 177.973C43.1968 178.762 42.5512 179.156 41.6672 179.156C41.2598 179.156 40.9132 179.056 40.6272 178.857C40.3412 178.658 40.1028 178.372 39.9122 177.999C39.7215 177.618 39.5785 177.163 39.4832 176.634C39.3965 176.097 39.3488 175.49 39.3402 174.814H38.2742V179H37.1952V169.9H38.2742V173.865ZM40.4322 174.45C40.4322 175.663 40.5492 176.591 40.7832 177.232C41.0172 177.873 41.3422 178.194 41.7582 178.194C42.2695 178.194 42.6292 177.899 42.8372 177.31C43.0452 176.721 43.1492 175.767 43.1492 174.45C43.1492 173.93 43.1275 173.445 43.0842 172.994C43.0495 172.535 42.9802 172.136 42.8762 171.798C42.7722 171.46 42.6248 171.196 42.4342 171.005C42.2522 170.806 42.0138 170.706 41.7192 170.706C41.4765 170.706 41.2728 170.793 41.1082 170.966C40.9435 171.139 40.8092 171.386 40.7052 171.707C40.6098 172.028 40.5405 172.422 40.4972 172.89C40.4538 173.349 40.4322 173.869 40.4322 174.45ZM46.3551 176.621H47.3171V177.986C47.5251 178.055 47.7591 178.116 48.0191 178.168C48.2791 178.22 48.5607 178.246 48.8641 178.246C49.5227 178.246 50.0514 178.09 50.4501 177.778C50.8574 177.466 51.0611 176.998 51.0611 176.374C51.0611 175.828 50.8747 175.425 50.5021 175.165C50.1294 174.896 49.6354 174.74 49.0201 174.697H48.2401V173.787H49.1371C49.3624 173.761 49.5747 173.705 49.7741 173.618C49.9734 173.523 50.1467 173.406 50.2941 173.267C50.4501 173.128 50.5714 172.968 50.6581 172.786C50.7447 172.604 50.7881 172.409 50.7881 172.201C50.7881 171.915 50.7361 171.677 50.6321 171.486C50.5367 171.287 50.4024 171.126 50.2291 171.005C50.0557 170.884 49.8477 170.797 49.6051 170.745C49.3624 170.684 49.0937 170.654 48.7991 170.654C48.5477 170.654 48.3007 170.671 48.0581 170.706C47.8154 170.741 47.5944 170.784 47.3951 170.836V172.123H46.4331V170.199V170.186C46.5197 170.134 46.6454 170.082 46.8101 170.03C46.9747 169.978 47.1697 169.93 47.3951 169.887C47.6204 169.844 47.8674 169.809 48.1361 169.783C48.4047 169.757 48.6864 169.744 48.9811 169.744C49.3711 169.744 49.7437 169.783 50.0991 169.861C50.4544 169.93 50.7664 170.052 51.0351 170.225C51.3124 170.39 51.5291 170.619 51.6851 170.914C51.8497 171.2 51.9321 171.555 51.9321 171.98C51.9321 172.413 51.7891 172.829 51.5031 173.228C51.2257 173.618 50.8011 173.9 50.2291 174.073V174.125C50.8444 174.212 51.3254 174.441 51.6721 174.814C52.0274 175.187 52.2051 175.685 52.2051 176.309C52.2051 176.803 52.1097 177.232 51.9191 177.596C51.7284 177.951 51.4727 178.246 51.1521 178.48C50.8401 178.714 50.4847 178.887 50.0861 179C49.6874 179.104 49.2801 179.156 48.8641 179.156C48.2661 179.156 47.7591 179.104 47.3431 179C46.9271 178.887 46.5977 178.783 46.3551 178.688V178.675V176.621ZM59.831 172.968L59.909 171.668H59.831L59.077 173.124L55.697 179H54.67V169.9H55.749V176.01L55.684 177.297H55.762L56.503 175.841L59.883 169.9H60.91V179H59.831V172.968ZM65.6499 174.788H64.6489V179H63.5699V169.9H64.6489V173.956H65.6239L68.5489 169.9H69.7969L66.5859 174.229L70.1999 179H68.8349L65.6499 174.788ZM76.7728 170.862H74.3158C74.2292 172.595 74.1122 174.038 73.9648 175.191C73.8262 176.335 73.6138 177.228 73.3278 177.869C73.1372 178.285 72.9118 178.588 72.6518 178.779C72.3918 178.97 72.1102 179.065 71.8068 179.065C71.6508 179.065 71.5165 179.052 71.4038 179.026C71.2912 179.009 71.1828 178.978 71.0788 178.935L71.2218 177.999C71.3085 178.025 71.3995 178.038 71.4948 178.038C71.6422 178.038 71.7852 177.99 71.9238 177.895C72.0712 177.8 72.2142 177.622 72.3528 177.362C72.4742 177.128 72.5868 176.816 72.6908 176.426C72.8035 176.036 72.8988 175.542 72.9768 174.944C73.0635 174.346 73.1328 173.635 73.1848 172.812C73.2368 171.98 73.2758 171.009 73.3018 169.9H77.8518V179H76.7728V170.862Z" fill="white"/>
<rect x="7" y="159" width="93" height="31" rx="15.5" stroke="white" stroke-width="2"/>
<path d="M35.1638 50.98C35.1638 51.1967 35.1291 51.4177 35.0598 51.643C34.9904 51.8683 34.8864 52.0807 34.7478 52.28C34.6091 52.4707 34.4314 52.6397 34.2148 52.787C33.9981 52.9343 33.7424 53.047 33.4478 53.125V53.177C33.7078 53.2203 33.9548 53.294 34.1888 53.398C34.4314 53.502 34.6438 53.645 34.8258 53.827C35.0078 54.009 35.1551 54.23 35.2678 54.49C35.3804 54.75 35.4368 55.0577 35.4368 55.413C35.4368 55.881 35.3371 56.2883 35.1378 56.635C34.9471 56.973 34.6914 57.2503 34.3708 57.467C34.0588 57.6837 33.6991 57.844 33.2918 57.948C32.8844 58.052 32.4684 58.104 32.0438 58.104C31.8964 58.104 31.7231 58.104 31.5238 58.104C31.3244 58.104 31.1164 58.0953 30.8998 58.078C30.6831 58.0693 30.4664 58.052 30.2498 58.026C30.0331 58.0087 29.8424 57.9783 29.6778 57.935V48.978C29.9984 48.926 30.3711 48.8827 30.7958 48.848C31.2204 48.8133 31.6841 48.796 32.1868 48.796C32.5248 48.796 32.8671 48.8263 33.2138 48.887C33.5691 48.939 33.8898 49.0473 34.1758 49.212C34.4618 49.368 34.6958 49.589 34.8778 49.875C35.0684 50.161 35.1638 50.5293 35.1638 50.98ZM32.1478 57.168C32.4251 57.168 32.6938 57.1333 32.9538 57.064C33.2138 56.9947 33.4434 56.8907 33.6428 56.752C33.8421 56.6133 33.9981 56.44 34.1108 56.232C34.2321 56.024 34.2928 55.777 34.2928 55.491C34.2928 55.1357 34.2191 54.8497 34.0718 54.633C33.9331 54.4163 33.7468 54.2473 33.5128 54.126C33.2874 54.0047 33.0318 53.9223 32.7458 53.879C32.4598 53.8357 32.1738 53.814 31.8878 53.814H30.7568V57.077C30.8174 57.0943 30.9041 57.1073 31.0168 57.116C31.1294 57.1247 31.2508 57.1333 31.3808 57.142C31.5108 57.1507 31.6451 57.1593 31.7838 57.168C31.9224 57.168 32.0438 57.168 32.1478 57.168ZM31.4328 52.904C31.5801 52.904 31.7578 52.8997 31.9658 52.891C32.1738 52.8823 32.3471 52.8693 32.4858 52.852C32.6938 52.7827 32.8888 52.7003 33.0708 52.605C33.2528 52.501 33.4131 52.3797 33.5518 52.241C33.6991 52.1023 33.8118 51.9463 33.8898 51.773C33.9764 51.5997 34.0198 51.409 34.0198 51.201C34.0198 50.915 33.9634 50.6767 33.8508 50.486C33.7468 50.2953 33.6038 50.1437 33.4218 50.031C33.2398 49.9183 33.0318 49.8403 32.7978 49.797C32.5638 49.7537 32.3254 49.732 32.0828 49.732C31.7968 49.732 31.5324 49.7407 31.2898 49.758C31.0558 49.7667 30.8781 49.784 30.7568 49.81V52.904H31.4328ZM38.3437 48.9H43.6867V49.862H39.4227V52.839H43.3617V53.801H39.4227V57.038H43.7517V58H38.3437V48.9ZM51.4816 49.888C51.3343 49.8273 51.1696 49.784 50.9876 49.758C50.8143 49.7233 50.6019 49.706 50.3506 49.706C49.9953 49.706 49.6443 49.771 49.2976 49.901C48.9596 50.031 48.6563 50.2433 48.3876 50.538C48.1276 50.8327 47.9153 51.2183 47.7506 51.695C47.5946 52.1717 47.5166 52.7567 47.5166 53.45C47.5166 54.074 47.586 54.62 47.7246 55.088C47.8719 55.556 48.0713 55.946 48.3226 56.258C48.5826 56.57 48.8903 56.804 49.2456 56.96C49.6096 57.116 50.0126 57.194 50.4546 57.194C50.68 57.194 50.888 57.1767 51.0786 57.142C51.278 57.0987 51.46 57.0423 51.6246 56.973V55.673H52.5866V57.428L52.5996 57.454C52.3396 57.6533 52.0103 57.8223 51.6116 57.961C51.213 58.091 50.7276 58.156 50.1556 58.156C49.6096 58.156 49.1026 58.065 48.6346 57.883C48.1753 57.6923 47.7766 57.4063 47.4386 57.025C47.1006 56.6437 46.8363 56.1583 46.6456 55.569C46.4636 54.971 46.3726 54.2647 46.3726 53.45C46.3726 52.6007 46.4766 51.8813 46.6846 51.292C46.8926 50.694 47.1743 50.2087 47.5296 49.836C47.8849 49.4547 48.2966 49.1773 48.7646 49.004C49.2413 48.8307 49.7483 48.744 50.2856 48.744C50.5803 48.744 50.8359 48.757 51.0526 48.783C51.2693 48.8003 51.46 48.8307 51.6246 48.874C51.7893 48.9087 51.9323 48.9563 52.0536 49.017C52.1836 49.0777 52.3093 49.147 52.4306 49.225H52.4436V51.279H51.4816V49.888ZM54.6225 48.9H61.3825V51.279H60.4205V49.862H58.5355V57.038H59.9655V58H56.0265V57.038H57.4565V49.862H55.5845V51.279H54.6225V48.9ZM64.0685 48.9H69.4115V49.862H65.1475V52.839H69.0865V53.801H65.1475V57.038H69.4765V58H64.0685V48.9ZM72.5524 48.991C72.8817 48.913 73.2371 48.861 73.6184 48.835C73.9997 48.809 74.3767 48.796 74.7494 48.796C75.1481 48.796 75.5511 48.835 75.9584 48.913C76.3744 48.991 76.7514 49.134 77.0894 49.342C77.4274 49.55 77.7004 49.836 77.9084 50.2C78.1251 50.564 78.2334 51.0277 78.2334 51.591C78.2334 52.1457 78.1337 52.6137 77.9344 52.995C77.7351 53.3763 77.4707 53.6883 77.1414 53.931C76.8121 54.165 76.4351 54.334 76.0104 54.438C75.5857 54.542 75.1481 54.594 74.6974 54.594C74.6541 54.594 74.5804 54.594 74.4764 54.594C74.3811 54.594 74.2771 54.594 74.1644 54.594C74.0604 54.5853 73.9564 54.5767 73.8524 54.568C73.7484 54.5593 73.6747 54.5507 73.6314 54.542V58H72.5524V48.991ZM74.7754 49.732C74.5501 49.732 74.3334 49.7363 74.1254 49.745C73.9174 49.7537 73.7527 49.7753 73.6314 49.81V53.58C73.6747 53.5973 73.7441 53.6103 73.8394 53.619C73.9347 53.619 74.0344 53.6233 74.1384 53.632C74.2424 53.632 74.3421 53.632 74.4374 53.632C74.5327 53.632 74.6021 53.632 74.6454 53.632C74.9401 53.632 75.2304 53.606 75.5164 53.554C75.8111 53.4933 76.0754 53.3893 76.3094 53.242C76.5434 53.0947 76.7297 52.8867 76.8684 52.618C77.0157 52.3493 77.0894 52.007 77.0894 51.591C77.0894 51.2357 77.0201 50.941 76.8814 50.707C76.7514 50.4643 76.5737 50.2737 76.3484 50.135C76.1317 49.9877 75.8847 49.8837 75.6074 49.823C75.3301 49.7623 75.0527 49.732 74.7754 49.732ZM85.7683 53.827H81.6863V58H80.6073V48.9H81.6863V52.865H85.7683V48.9H86.8473V58H85.7683V53.827Z" fill="white"/>
<rect x="7" y="38" width="102" height="31" rx="15.5" stroke="white" stroke-width="2"/>
<rect x="87" y="9" width="85" height="31" rx="15.5" fill="white"/>
<path d="M116.045 30.833H115.135V29H109.467V30.833H108.557V28.038H109.428C109.462 27.934 109.54 27.7043 109.662 27.349C109.792 26.9937 109.922 26.491 110.052 25.841C110.19 25.191 110.316 24.3763 110.429 23.397C110.541 22.4177 110.598 21.252 110.598 19.9H115.07V28.038H116.045V30.833ZM113.991 28.038V20.862H111.612C111.586 21.8153 111.529 22.6733 111.443 23.436C111.365 24.1987 111.274 24.8747 111.17 25.464C111.066 26.0533 110.957 26.5603 110.845 26.985C110.741 27.4097 110.65 27.7607 110.572 28.038H113.991ZM118.328 19.991C118.657 19.913 119.012 19.861 119.394 19.835C119.775 19.809 120.152 19.796 120.525 19.796C120.923 19.796 121.326 19.835 121.734 19.913C122.15 19.991 122.527 20.134 122.865 20.342C123.203 20.55 123.476 20.836 123.684 21.2C123.9 21.564 124.009 22.0277 124.009 22.591C124.009 23.1457 123.909 23.6137 123.71 23.995C123.51 24.3763 123.246 24.6883 122.917 24.931C122.587 25.165 122.21 25.334 121.786 25.438C121.361 25.542 120.923 25.594 120.473 25.594C120.429 25.594 120.356 25.594 120.252 25.594C120.156 25.594 120.052 25.594 119.94 25.594C119.836 25.5853 119.732 25.5767 119.628 25.568C119.524 25.5593 119.45 25.5507 119.407 25.542V29H118.328V19.991ZM120.551 20.732C120.325 20.732 120.109 20.7363 119.901 20.745C119.693 20.7537 119.528 20.7753 119.407 20.81V24.58C119.45 24.5973 119.519 24.6103 119.615 24.619C119.71 24.619 119.81 24.6233 119.914 24.632C120.018 24.632 120.117 24.632 120.213 24.632C120.308 24.632 120.377 24.632 120.421 24.632C120.715 24.632 121.006 24.606 121.292 24.554C121.586 24.4933 121.851 24.3893 122.085 24.242C122.319 24.0947 122.505 23.8867 122.644 23.618C122.791 23.3493 122.865 23.007 122.865 22.591C122.865 22.2357 122.795 21.941 122.657 21.707C122.527 21.4643 122.349 21.2737 122.124 21.135C121.907 20.9877 121.66 20.8837 121.383 20.823C121.105 20.7623 120.828 20.732 120.551 20.732ZM131.206 26.478H127.709L126.877 29H125.811L128.853 19.9H130.127L133.195 29H132.064L131.206 26.478ZM128.047 25.542H130.907L129.568 21.265H129.412L128.047 25.542ZM140.118 22.955L140.248 21.72H140.183L139.559 22.838L138.233 25.061H137.908L136.517 22.825L135.919 21.72H135.854L136.01 22.942V29H134.957V19.9H135.958L138.116 23.358H138.142L140.222 19.9H141.197V29H140.118V22.955ZM148.355 26.478H144.858L144.026 29H142.96L146.002 19.9H147.276L150.344 29H149.213L148.355 26.478ZM145.196 25.542H148.056L146.717 21.265H146.561L145.196 25.542Z" fill="black"/>
<rect x="87" y="9" width="85" height="31" rx="15.5" stroke="white" stroke-width="2"/>
<path d="M102.693 206.478H99.1963L98.3643 209H97.2983L100.34 199.9H101.614L104.682 209H103.551L102.693 206.478ZM99.5343 205.542H102.394L101.055 201.265H100.899L99.5343 205.542ZM106.965 199.991C107.295 199.913 107.65 199.861 108.031 199.835C108.413 199.809 108.79 199.796 109.162 199.796C109.561 199.796 109.964 199.835 110.371 199.913C110.787 199.991 111.164 200.134 111.502 200.342C111.84 200.55 112.113 200.836 112.321 201.2C112.538 201.564 112.646 202.028 112.646 202.591C112.646 203.146 112.547 203.614 112.347 203.995C112.148 204.376 111.884 204.688 111.554 204.931C111.225 205.165 110.848 205.334 110.423 205.438C109.999 205.542 109.561 205.594 109.11 205.594C109.067 205.594 108.993 205.594 108.889 205.594C108.794 205.594 108.69 205.594 108.577 205.594C108.473 205.585 108.369 205.577 108.265 205.568C108.161 205.559 108.088 205.551 108.044 205.542V209H106.965V199.991ZM109.188 200.732C108.963 200.732 108.746 200.736 108.538 200.745C108.33 200.754 108.166 200.775 108.044 200.81V204.58C108.088 204.597 108.157 204.61 108.252 204.619C108.348 204.619 108.447 204.623 108.551 204.632C108.655 204.632 108.755 204.632 108.85 204.632C108.946 204.632 109.015 204.632 109.058 204.632C109.353 204.632 109.643 204.606 109.929 204.554C110.224 204.493 110.488 204.389 110.722 204.242C110.956 204.095 111.143 203.887 111.281 203.618C111.429 203.349 111.502 203.007 111.502 202.591C111.502 202.236 111.433 201.941 111.294 201.707C111.164 201.464 110.987 201.274 110.761 201.135C110.545 200.988 110.298 200.884 110.02 200.823C109.743 200.762 109.466 200.732 109.188 200.732ZM114.76 199.9H121.52V202.279H120.558V200.862H118.673V208.038H120.103V209H116.164V208.038H117.594V200.862H115.722V202.279H114.76V199.9ZM124.492 204.775H128.938V205.737H124.492V204.775ZM134.653 204.372L131.91 199.9H133.21L135.03 202.981L135.355 203.592L135.667 202.981L137.604 199.9H138.8L135.953 204.281L138.93 209H137.669L135.628 205.737L135.277 205.087L134.939 205.737L132.859 209H131.65L134.653 204.372ZM145.568 206.478H142.071L141.239 209H140.173L143.215 199.9H144.489L147.557 209H146.426L145.568 206.478ZM142.409 205.542H145.269L143.93 201.265H143.774L142.409 205.542ZM152.427 205.308H153.259L154.845 199.9H155.95L154.104 205.815C153.931 206.413 153.757 206.92 153.584 207.336C153.419 207.752 153.237 208.09 153.038 208.35C152.847 208.601 152.635 208.783 152.401 208.896C152.167 209.009 151.898 209.065 151.595 209.065C151.309 209.065 151.079 209.043 150.906 209C150.741 208.948 150.585 208.874 150.438 208.779L150.763 207.882C150.936 207.977 151.097 208.038 151.244 208.064C151.391 208.09 151.526 208.103 151.647 208.103C151.89 208.103 152.124 207.96 152.349 207.674C152.574 207.388 152.761 206.92 152.908 206.27L151.738 206.257L148.93 199.9H150.178L152.427 205.308ZM163.069 200.888C162.921 200.827 162.757 200.784 162.575 200.758C162.401 200.723 162.189 200.706 161.938 200.706C161.582 200.706 161.231 200.771 160.885 200.901C160.547 201.031 160.243 201.243 159.975 201.538C159.715 201.833 159.502 202.218 159.338 202.695C159.182 203.172 159.104 203.757 159.104 204.45C159.104 205.074 159.173 205.62 159.312 206.088C159.459 206.556 159.658 206.946 159.91 207.258C160.17 207.57 160.477 207.804 160.833 207.96C161.197 208.116 161.6 208.194 162.042 208.194C162.267 208.194 162.475 208.177 162.666 208.142C162.865 208.099 163.047 208.042 163.212 207.973V206.673H164.174V208.428L164.187 208.454C163.927 208.653 163.597 208.822 163.199 208.961C162.8 209.091 162.315 209.156 161.743 209.156C161.197 209.156 160.69 209.065 160.222 208.883C159.762 208.692 159.364 208.406 159.026 208.025C158.688 207.644 158.423 207.158 158.233 206.569C158.051 205.971 157.96 205.265 157.96 204.45C157.96 203.601 158.064 202.881 158.272 202.292C158.48 201.694 158.761 201.209 159.117 200.836C159.472 200.455 159.884 200.177 160.352 200.004C160.828 199.831 161.335 199.744 161.873 199.744C162.167 199.744 162.423 199.757 162.64 199.783C162.856 199.8 163.047 199.831 163.212 199.874C163.376 199.909 163.519 199.956 163.641 200.017C163.771 200.078 163.896 200.147 164.018 200.225H164.031V202.279H163.069V200.888Z" fill="white"/>
<rect x="76" y="189" width="110" height="31" rx="15.5" stroke="white" stroke-width="2"/>
<path d="M157.181 149.827H153.099V154H152.02V144.9H153.099V148.865H157.181V144.9H158.26V154H157.181V149.827ZM163.702 150.308H164.534L166.12 144.9H167.225L165.379 150.815C165.206 151.413 165.032 151.92 164.859 152.336C164.694 152.752 164.512 153.09 164.313 153.35C164.122 153.601 163.91 153.783 163.676 153.896C163.442 154.009 163.173 154.065 162.87 154.065C162.584 154.065 162.354 154.043 162.181 154C162.016 153.948 161.86 153.874 161.713 153.779L162.038 152.882C162.211 152.977 162.372 153.038 162.519 153.064C162.666 153.09 162.801 153.103 162.922 153.103C163.165 153.103 163.399 152.96 163.624 152.674C163.849 152.388 164.036 151.92 164.183 151.27L163.013 151.257L160.205 144.9H161.453L163.702 150.308ZM173.993 151.478H170.496L169.664 154H168.598L171.64 144.9H172.914L175.982 154H174.851L173.993 151.478ZM170.834 150.542H173.694L172.355 146.265H172.199L170.834 150.542ZM178.265 144.991C178.594 144.913 178.95 144.861 179.331 144.835C179.712 144.809 180.089 144.796 180.462 144.796C180.861 144.796 181.264 144.835 181.671 144.913C182.087 144.991 182.464 145.134 182.802 145.342C183.14 145.55 183.413 145.836 183.621 146.2C183.838 146.564 183.946 147.028 183.946 147.591C183.946 148.146 183.846 148.614 183.647 148.995C183.448 149.376 183.183 149.688 182.854 149.931C182.525 150.165 182.148 150.334 181.723 150.438C181.298 150.542 180.861 150.594 180.41 150.594C180.367 150.594 180.293 150.594 180.189 150.594C180.094 150.594 179.99 150.594 179.877 150.594C179.773 150.585 179.669 150.577 179.565 150.568C179.461 150.559 179.387 150.551 179.344 150.542V154H178.265V144.991ZM180.488 145.732C180.263 145.732 180.046 145.736 179.838 145.745C179.63 145.754 179.465 145.775 179.344 145.81V149.58C179.387 149.597 179.457 149.61 179.552 149.619C179.647 149.619 179.747 149.623 179.851 149.632C179.955 149.632 180.055 149.632 180.15 149.632C180.245 149.632 180.315 149.632 180.358 149.632C180.653 149.632 180.943 149.606 181.229 149.554C181.524 149.493 181.788 149.389 182.022 149.242C182.256 149.095 182.442 148.887 182.581 148.618C182.728 148.349 182.802 148.007 182.802 147.591C182.802 147.236 182.733 146.941 182.594 146.707C182.464 146.464 182.286 146.274 182.061 146.135C181.844 145.988 181.597 145.884 181.32 145.823C181.043 145.762 180.765 145.732 180.488 145.732Z" fill="white"/>
<rect x="130" y="134" width="76" height="31" rx="15.5" stroke="white" stroke-width="2"/>
<rect x="7" y="101" width="179" height="31" rx="15.5" fill="white"/>
<path d="M35.8826 122.833H34.9726V121H29.3046V122.833H28.3946V120.038H29.2656C29.3003 119.934 29.3783 119.704 29.4996 119.349C29.6296 118.994 29.7596 118.491 29.8896 117.841C30.0283 117.191 30.154 116.376 30.2666 115.397C30.3793 114.418 30.4356 113.252 30.4356 111.9H34.9076V120.038H35.8826V122.833ZM33.8286 120.038V112.862H31.4496C31.4236 113.815 31.3673 114.673 31.2806 115.436C31.2026 116.199 31.1116 116.875 31.0076 117.464C30.9036 118.053 30.7953 118.56 30.6826 118.985C30.5786 119.41 30.4876 119.761 30.4096 120.038H33.8286ZM37.4895 116.45C37.4895 114.942 37.7539 113.781 38.2825 112.966C38.8199 112.151 39.6432 111.744 40.7525 111.744C41.3592 111.744 41.8705 111.857 42.2865 112.082C42.7112 112.307 43.0535 112.628 43.3135 113.044C43.5735 113.451 43.7599 113.945 43.8725 114.526C43.9852 115.098 44.0415 115.739 44.0415 116.45C44.0415 117.958 43.7729 119.119 43.2355 119.934C42.7069 120.749 41.8792 121.156 40.7525 121.156C40.1545 121.156 39.6475 121.043 39.2315 120.818C38.8155 120.593 38.4775 120.276 38.2175 119.869C37.9575 119.453 37.7712 118.959 37.6585 118.387C37.5459 117.806 37.4895 117.161 37.4895 116.45ZM38.6335 116.45C38.6335 116.953 38.6639 117.429 38.7245 117.88C38.7939 118.331 38.9109 118.729 39.0755 119.076C39.2402 119.414 39.4569 119.687 39.7255 119.895C39.9942 120.094 40.3365 120.194 40.7525 120.194C41.4979 120.194 42.0395 119.891 42.3775 119.284C42.7242 118.677 42.8975 117.733 42.8975 116.45C42.8975 115.956 42.8629 115.484 42.7935 115.033C42.7329 114.574 42.6202 114.175 42.4555 113.837C42.2909 113.49 42.0699 113.217 41.7925 113.018C41.5152 112.81 41.1685 112.706 40.7525 112.706C40.0159 112.706 39.4785 113.014 39.1405 113.629C38.8025 114.236 38.6335 115.176 38.6335 116.45ZM48.6255 116.788H47.6245V121H46.5455V111.9H47.6245V115.956H48.5995L51.5245 111.9H52.7725L49.5615 116.229L53.1755 121H51.8105L48.6255 116.788ZM57.9024 117.308H58.7344L60.3204 111.9H61.4254L59.5794 117.815C59.4061 118.413 59.2327 118.92 59.0594 119.336C58.8947 119.752 58.7127 120.09 58.5134 120.35C58.3227 120.601 58.1104 120.783 57.8764 120.896C57.6424 121.009 57.3737 121.065 57.0704 121.065C56.7844 121.065 56.5547 121.043 56.3814 121C56.2167 120.948 56.0607 120.874 55.9134 120.779L56.2384 119.882C56.4117 119.977 56.5721 120.038 56.7194 120.064C56.8667 120.09 57.0011 120.103 57.1224 120.103C57.3651 120.103 57.5991 119.96 57.8244 119.674C58.0497 119.388 58.2361 118.92 58.3834 118.27L57.2134 118.257L54.4054 111.9H55.6534L57.9024 117.308ZM68.5313 114.955L68.6613 113.72H68.5963L67.9723 114.838L66.6463 117.061H66.3213L64.9303 114.825L64.3323 113.72H64.2673L64.4233 114.942V121H63.3703V111.9H64.3713L66.5293 115.358H66.5553L68.6353 111.9H69.6103V121H68.5313V114.955ZM72.5562 111.9H77.8992V112.862H73.6352V115.839H77.5742V116.801H73.6352V120.038H77.9642V121H72.5562V111.9ZM85.6812 116.827H81.5992V121H80.5202V111.9H81.5992V115.865H85.6812V111.9H86.7602V121H85.6812V116.827ZM88.8351 111.9H95.5951V114.279H94.6331V112.862H92.7481V120.038H94.1781V121H90.2391V120.038H91.6691V112.862H89.7971V114.279H88.8351V111.9ZM102.493 118.478H98.996L98.164 121H97.098L100.14 111.9H101.414L104.482 121H103.351L102.493 118.478ZM99.334 117.542H102.194L100.855 113.265H100.699L99.334 117.542ZM111.198 112.862H108.741C108.654 114.595 108.537 116.038 108.39 117.191C108.251 118.335 108.039 119.228 107.753 119.869C107.562 120.285 107.337 120.588 107.077 120.779C106.817 120.97 106.535 121.065 106.232 121.065C106.076 121.065 105.942 121.052 105.829 121.026C105.716 121.009 105.608 120.978 105.504 120.935L105.647 119.999C105.734 120.025 105.825 120.038 105.92 120.038C106.067 120.038 106.21 119.99 106.349 119.895C106.496 119.8 106.639 119.622 106.778 119.362C106.899 119.128 107.012 118.816 107.116 118.426C107.229 118.036 107.324 117.542 107.402 116.944C107.489 116.346 107.558 115.635 107.61 114.812C107.662 113.98 107.701 113.009 107.727 111.9H112.277V121H111.198V112.862ZM119.981 114.968L120.059 113.668H119.981L119.227 115.124L115.847 121H114.82V111.9H115.899V118.01L115.834 119.297H115.912L116.653 117.841L120.033 111.9H121.06V121H119.981V114.968ZM128.569 112.888C128.421 112.827 128.257 112.784 128.075 112.758C127.901 112.723 127.689 112.706 127.438 112.706C127.082 112.706 126.731 112.771 126.385 112.901C126.047 113.031 125.743 113.243 125.475 113.538C125.215 113.833 125.002 114.218 124.838 114.695C124.682 115.172 124.604 115.757 124.604 116.45C124.604 117.074 124.673 117.62 124.812 118.088C124.959 118.556 125.158 118.946 125.41 119.258C125.67 119.57 125.977 119.804 126.333 119.96C126.697 120.116 127.1 120.194 127.542 120.194C127.767 120.194 127.975 120.177 128.166 120.142C128.365 120.099 128.547 120.042 128.712 119.973V118.673H129.674V120.428L129.687 120.454C129.427 120.653 129.097 120.822 128.699 120.961C128.3 121.091 127.815 121.156 127.243 121.156C126.697 121.156 126.19 121.065 125.722 120.883C125.262 120.692 124.864 120.406 124.526 120.025C124.188 119.644 123.923 119.158 123.733 118.569C123.551 117.971 123.46 117.265 123.46 116.45C123.46 115.601 123.564 114.881 123.772 114.292C123.98 113.694 124.261 113.209 124.617 112.836C124.972 112.455 125.384 112.177 125.852 112.004C126.328 111.831 126.835 111.744 127.373 111.744C127.667 111.744 127.923 111.757 128.14 111.783C128.356 111.8 128.547 111.831 128.712 111.874C128.876 111.909 129.019 111.956 129.141 112.017C129.271 112.078 129.396 112.147 129.518 112.225H129.531V114.279H128.569V112.888ZM131.71 111.9H138.47V114.279H137.508V112.862H135.623V120.038H137.053V121H133.114V120.038H134.544V112.862H132.672V114.279H131.71V111.9ZM145.706 114.968L145.784 113.668H145.706L144.952 115.124L141.572 121H140.545V111.9H141.624V118.01L141.559 119.297H141.637L142.378 117.841L145.758 111.9H146.785V121H145.706V114.968ZM151.525 116.788H150.524V121H149.445V111.9H150.524V115.956H151.499L154.424 111.9H155.672L152.461 116.229L156.075 121H154.71L151.525 116.788ZM162.517 118.478H159.02L158.188 121H157.122L160.164 111.9H161.438L164.506 121H163.375L162.517 118.478ZM159.358 117.542H162.218L160.879 113.265H160.723L159.358 117.542Z" fill="black"/>
<rect x="7" y="101" width="179" height="31" rx="15.5" stroke="white" stroke-width="2"/>
</svg>
