<svg width="60" height="60" viewBox="0 0 60 60" fill="none" xmlns="http://www.w3.org/2000/svg">
<path fill-rule="evenodd" clip-rule="evenodd" d="M38.8516 23.3053C39.923 23.3053 40.7917 22.4436 40.7917 21.3647C40.7917 20.2931 39.923 19.4242 38.8516 19.4242C37.7802 19.4242 36.9115 20.2931 36.9115 21.3647C36.9115 22.4364 37.773 23.3053 38.8516 23.3053ZM43.6802 16.535C45.5841 18.4322 46.1778 20.7348 46.3008 23.3342C46.4529 26.0134 46.4529 34.0363 46.3008 36.7154C46.1705 39.3149 45.5769 41.6175 43.6802 43.5146C41.7835 45.4189 39.4814 46.0127 36.8825 46.1358C34.204 46.2878 26.1757 46.2878 23.4971 46.1358C20.8982 46.0054 18.6034 45.4117 16.6995 43.5146C14.7955 41.6175 14.2019 39.3149 14.0789 36.7154C13.9268 34.0363 13.9268 26.0061 14.0789 23.327C14.2092 20.7275 14.7955 18.4249 16.6995 16.5278C18.6034 14.6307 20.9055 14.0369 23.4971 13.9138C26.1757 13.7618 34.204 13.7618 36.8825 13.9138C39.4814 14.0442 41.7835 14.6379 43.6802 16.535ZM35.7672 30.0248C35.7672 33.1051 33.2701 35.6021 30.1898 35.6021C27.1096 35.6021 24.6125 33.1051 24.6125 30.0248C24.6125 26.9445 27.1096 24.4475 30.1898 24.4475C33.2701 24.4475 35.7672 26.9445 35.7672 30.0248ZM38.7172 30.0248C38.7172 34.7343 34.8994 38.5521 30.1898 38.5521C25.4803 38.5521 21.6625 34.7343 21.6625 30.0248C21.6625 25.3153 25.4803 21.4975 30.1898 21.4975C34.8994 21.4975 38.7172 25.3153 38.7172 30.0248Z" fill="#EEEEEE"/>
</svg>
