<svg width="139" height="15" viewBox="0 0 139 15" fill="none" xmlns="http://www.w3.org/2000/svg">
<path d="M1.58535 14.3878V8.02077H3.6054L8.51488 14.3878H10.4582L4.83277 7.17695L10.0747 0.630972H8.20804L3.42641 6.63998H1.58535V0.630972H0V14.3878H1.58535Z" fill="white"/>
<path d="M14.3954 14.3878L22.3222 3.009V14.3878H23.9076V0.630972H22.3222L14.3954 11.9586V0.630972H12.8101V14.3878H14.3954Z" fill="white"/>
<path d="M28.4171 14.3878V8.07191H36.1393V14.3878H37.7247V0.630972H36.1393V6.69112H28.4171V0.630972H26.8318V14.3878H28.4171Z" fill="white"/>
<path d="M42.6176 10.4082C43.5564 12.0204 44.8421 13.1122 46.4747 13.6837C48.1278 14.2551 49.6482 14.1429 51.0359 13.3469C52.4237 12.5306 53.2808 11.2755 53.6074 9.58163C53.9339 7.86735 53.638 6.20408 52.7196 4.59184C51.7808 2.97959 50.4849 1.88776 48.8319 1.31633C47.1992 0.744898 45.689 0.857143 44.3013 1.65306C42.9135 2.46939 42.0564 3.73469 41.7298 5.44898C41.4033 7.14286 41.6992 8.79592 42.6176 10.4082ZM42.3727 12.7959C40.9033 11.3265 40.1686 9.56122 40.1686 7.5C40.1686 5.43878 40.9033 3.67347 42.3727 2.20408C43.8421 0.734694 45.6074 0 47.6686 0C49.7298 0 51.4951 0.734694 52.9645 2.20408C54.4339 3.67347 55.1686 5.43878 55.1686 7.5C55.1686 9.56122 54.4339 11.3265 52.9645 12.7959C51.4951 14.2653 49.7298 15 47.6686 15C45.6074 15 43.8421 14.2653 42.3727 12.7959Z" fill="white"/>
<path d="M67.45 14.3878V0.630972H65.8647V7.15138C64.356 7.53493 63.0775 7.71393 62.0292 7.71393C59.779 7.71393 58.8584 7.0491 58.8584 4.51765V0.630972H57.2731V4.92677C57.2731 7.89292 58.7306 9.14586 61.5177 9.14586C62.7707 9.14586 64.1515 8.91573 65.8647 8.53217V14.3878H67.45Z" fill="white"/>
<path d="M76.3492 14.7202C79.3921 14.7202 81.6167 13.1348 82.3071 10.2709H80.645C80.1081 12.1887 78.5994 13.2627 76.4515 13.2627C73.6388 13.2627 71.5676 11.3193 71.4909 7.96963H82.4349C82.6395 3.67383 80.1592 0.40084 76.2981 0.40084C72.616 0.40084 69.8544 3.13686 69.8544 7.5605C69.8544 11.8307 72.3347 14.7202 76.3492 14.7202ZM76.2725 1.83277C79.0341 1.83277 80.6962 4.18523 80.6962 6.51212H71.542C71.8744 3.4437 73.7155 1.83277 76.2725 1.83277Z" fill="white"/>
<path d="M90.5588 0.40084C86.5442 0.40084 84.2429 3.29028 84.2429 7.5605C84.2429 11.7796 86.5442 14.7202 90.4309 14.7202C93.4738 14.7202 95.8007 12.8791 96.3376 10.0408H94.65C94.2409 11.754 92.7834 13.2627 90.4309 13.2627C88.0529 13.2627 85.9306 11.4472 85.9306 7.53493C85.9306 3.75054 88.0529 1.85834 90.4053 1.85834C92.4254 1.85834 94.0363 2.98343 94.5477 5.05462H96.2098C95.8007 2.59988 93.7039 0.40084 90.5588 0.40084Z" fill="white"/>
<path d="M103.719 14.3878V2.01176H108.705V0.630972H97.1474V2.01176H102.134V14.3878H103.719Z" fill="white"/>
<path d="M116.743 14.3878C119.504 14.3878 121.729 13.2627 121.729 10.4755C121.729 8.55774 120.604 7.61164 119.146 7.22809C120.502 6.66555 121.166 5.61717 121.166 4.08295C121.166 1.34694 118.916 0.630972 116.283 0.630972H110.836V14.3878H116.743ZM112.421 8.04634H116.462C118.916 8.04634 120.118 8.71116 120.118 10.4755C120.118 12.112 118.916 13.007 116.564 13.007H112.421V8.04634ZM112.421 2.01176H116.231C118.251 2.01176 119.556 2.57431 119.556 4.23637C119.556 6.103 118.328 6.69112 116.359 6.69112H112.421V2.01176Z" fill="white"/>
<path d="M126.123 10.4316C127.056 12.0343 128.334 13.1197 129.957 13.6878C131.601 14.2559 133.112 14.1443 134.492 13.3531C135.871 12.5415 136.723 11.2938 137.048 9.6099C137.373 7.9057 137.078 6.25222 136.165 4.64946C135.232 3.0467 133.944 1.96128 132.301 1.39322C130.678 0.825151 129.176 0.936735 127.797 1.72797C126.417 2.5395 125.565 3.79736 125.24 5.50156C124.916 7.18547 125.21 8.82881 126.123 10.4316ZM125.879 12.8053C124.419 11.3445 123.688 9.58962 123.688 7.54052C123.688 5.49142 124.419 3.7365 125.879 2.27575C127.34 0.815006 129.095 0.0846339 131.144 0.0846339C133.193 0.0846339 134.948 0.815006 136.409 2.27575C137.87 3.7365 138.6 5.49142 138.6 7.54052C138.6 9.58962 137.87 11.3445 136.409 12.8053C134.948 14.266 133.193 14.9964 131.144 14.9964C129.095 14.9964 127.34 14.266 125.879 12.8053Z" fill="white"/>
</svg>
