<svg width="30" height="30" viewBox="0 0 30 30" fill="none" xmlns="http://www.w3.org/2000/svg">
<path d="M25 12.6364C25 20.9091 15 28 15 28C15 28 5 20.9091 5 12.6364C5 9.81542 6.05357 7.11002 7.92893 5.11532C9.8043 3.12061 12.3478 2 15 2C17.6522 2 20.1957 3.12061 22.0711 5.11532C23.9464 7.11002 25 9.81542 25 12.6364Z" stroke="white" stroke-width="3" stroke-linecap="round" stroke-linejoin="round"/>
<path d="M15 15C16.6569 15 18 13.6569 18 12C18 10.3431 16.6569 9 15 9C13.3431 9 12 10.3431 12 12C12 13.6569 13.3431 15 15 15Z" fill="white"/>
</svg>
