<svg width="302" height="119" viewBox="0 0 302 119" fill="none" xmlns="http://www.w3.org/2000/svg">
<rect x="8.5" y="28.5" width="292" height="58" stroke="white" stroke-width="3"/>
<path d="M13.3978 12.506H9.00184V17H7.83984V7.19995H9.00184V11.47H13.3978V7.19995H14.5598V17H13.3978V12.506Z" fill="white"/>
<path d="M16.9064 10.546C17.3077 10.3126 17.7604 10.1446 18.2644 10.042C18.7684 9.93928 19.263 9.88795 19.7484 9.88795C20.2244 9.88795 20.6117 9.96262 20.9104 10.112C21.2184 10.2613 21.4564 10.4573 21.6244 10.7C21.8017 10.9333 21.9184 11.204 21.9744 11.512C22.0397 11.8106 22.0724 12.114 22.0724 12.422C22.0724 12.7766 22.063 13.1546 22.0444 13.556C22.0257 13.9573 22.0117 14.3586 22.0024 14.76C22.0024 15.2266 22.0304 15.67 22.0864 16.09H23.0244V17H21.1624L21.0364 15.95H20.9664C20.9104 16.034 20.8264 16.1413 20.7144 16.272C20.6024 16.4026 20.453 16.5333 20.2664 16.664C20.089 16.7853 19.8697 16.8926 19.6084 16.986C19.347 17.0793 19.039 17.126 18.6844 17.126C17.9937 17.126 17.4477 16.9486 17.0464 16.594C16.645 16.2393 16.4444 15.754 16.4444 15.138C16.4444 14.662 16.547 14.2653 16.7524 13.948C16.967 13.6306 17.2704 13.388 17.6624 13.22C18.0544 13.052 18.5257 12.954 19.0764 12.926C19.6364 12.898 20.2617 12.9353 20.9524 13.038C20.999 12.6086 21.0037 12.254 20.9664 11.974C20.9384 11.6846 20.8637 11.456 20.7424 11.288C20.6304 11.12 20.467 11.0033 20.2524 10.938C20.047 10.8633 19.7904 10.826 19.4824 10.826C19.0624 10.826 18.661 10.8866 18.2784 11.008C17.8957 11.12 17.555 11.2366 17.2564 11.358L16.9064 10.546ZM18.9644 16.188C19.2257 16.188 19.4684 16.146 19.6924 16.062C19.9164 15.978 20.1124 15.8706 20.2804 15.74C20.4484 15.6093 20.5884 15.4693 20.7004 15.32C20.8124 15.1613 20.8964 15.012 20.9524 14.872V13.892C20.467 13.808 20.019 13.766 19.6084 13.766C19.1977 13.766 18.843 13.8126 18.5444 13.906C18.2457 13.99 18.0124 14.1253 17.8444 14.312C17.6764 14.4986 17.5924 14.7413 17.5924 15.04C17.5924 15.348 17.695 15.6186 17.9004 15.852C18.115 16.076 18.4697 16.188 18.9644 16.188Z" fill="white"/>
<path d="M25.2869 10.658L25.2729 10.616C25.4316 10.5226 25.5996 10.434 25.7769 10.35C25.9636 10.2566 26.1689 10.1773 26.3929 10.112C26.6262 10.0373 26.8876 9.97662 27.1769 9.92995C27.4662 9.88328 27.7976 9.85995 28.1709 9.85995C28.5536 9.85995 28.9082 9.90195 29.2349 9.98595C29.5616 10.0606 29.8462 10.1726 30.0889 10.322C30.3316 10.4713 30.5182 10.658 30.6489 10.882C30.7889 11.0966 30.8589 11.344 30.8589 11.624C30.8589 11.7733 30.8262 11.932 30.7609 12.1C30.7049 12.2586 30.6162 12.4126 30.4949 12.562C30.3736 12.7113 30.2289 12.8466 30.0609 12.968C29.8929 13.0893 29.7016 13.1826 29.4869 13.248V13.304C30.1029 13.4066 30.5322 13.6026 30.7749 13.892C31.0269 14.1813 31.1529 14.564 31.1529 15.04C31.1529 15.3386 31.0829 15.614 30.9429 15.866C30.8029 16.118 30.5929 16.3373 30.3129 16.524C30.0422 16.7106 29.7016 16.86 29.2909 16.972C28.8896 17.0746 28.4182 17.126 27.8769 17.126C27.4756 17.126 27.1116 17.0886 26.7849 17.014C26.4582 16.9393 26.1689 16.846 25.9169 16.734C25.6742 16.622 25.4642 16.5006 25.2869 16.37C25.1189 16.2393 24.9882 16.118 24.8949 16.006L25.4549 15.124C25.5576 15.236 25.6836 15.3573 25.8329 15.488C25.9822 15.6093 26.1642 15.7213 26.3789 15.824C26.6029 15.9266 26.8549 16.0153 27.1349 16.09C27.4242 16.1553 27.7556 16.188 28.1289 16.188C28.3902 16.188 28.6329 16.1646 28.8569 16.118C29.0902 16.062 29.2909 15.9873 29.4589 15.894C29.6362 15.7913 29.7762 15.6653 29.8789 15.516C29.9816 15.3573 30.0329 15.1753 30.0329 14.97C30.0329 14.6153 29.8696 14.3446 29.5429 14.158C29.2256 13.9713 28.6982 13.878 27.9609 13.878H27.1629V12.968H28.1569C28.3436 12.968 28.5302 12.94 28.7169 12.884C28.9036 12.8186 29.0716 12.7393 29.2209 12.646C29.3702 12.5433 29.4916 12.4266 29.5849 12.296C29.6782 12.156 29.7249 12.0113 29.7249 11.862C29.7249 11.6753 29.6782 11.5166 29.5849 11.386C29.4916 11.246 29.3609 11.134 29.1929 11.05C29.0342 10.966 28.8429 10.9053 28.6189 10.868C28.4042 10.8213 28.1756 10.798 27.9329 10.798C27.5596 10.798 27.2329 10.8353 26.9529 10.91C26.6729 10.9753 26.4349 11.0593 26.2389 11.162V12.324H25.2869V10.658Z" fill="white"/>
<path d="M33.8634 10.014C34.0408 10.0046 34.2181 9.99529 34.3954 9.98595C34.5728 9.96728 34.7641 9.95328 34.9694 9.94395C35.1748 9.93462 35.3941 9.92529 35.6274 9.91595C35.8701 9.90662 36.1408 9.90195 36.4394 9.90195C37.4474 9.90195 38.1754 10.0466 38.6234 10.336C39.0714 10.616 39.2954 11.0406 39.2954 11.61C39.2954 11.9366 39.1881 12.2633 38.9734 12.59C38.7588 12.9073 38.4088 13.136 37.9234 13.276V13.332C38.5394 13.4346 38.9734 13.626 39.2254 13.906C39.4774 14.1766 39.6034 14.55 39.6034 15.026C39.6034 15.754 39.3048 16.2813 38.7074 16.608C38.1194 16.9346 37.2608 17.098 36.1314 17.098C35.6834 17.098 35.2821 17.084 34.9274 17.056C34.5728 17.0373 34.2181 17.014 33.8634 16.986V10.014ZM34.9414 16.118C35.1561 16.1366 35.3708 16.1506 35.5854 16.16C35.8001 16.1693 36.0428 16.174 36.3134 16.174C37.0414 16.174 37.5828 16.0853 37.9374 15.908C38.3014 15.7213 38.4834 15.404 38.4834 14.956C38.4834 14.7786 38.4461 14.62 38.3714 14.48C38.3061 14.34 38.1894 14.2186 38.0214 14.116C37.8628 14.0133 37.6528 13.934 37.3914 13.878C37.1301 13.822 36.8034 13.794 36.4114 13.794H34.9414V16.118ZM36.6074 12.954C36.7941 12.954 36.9808 12.926 37.1674 12.87C37.3541 12.8046 37.5221 12.7253 37.6714 12.632C37.8301 12.5293 37.9561 12.4126 38.0494 12.282C38.1428 12.142 38.1894 11.9973 38.1894 11.848C38.1894 11.4653 38.0494 11.1993 37.7694 11.05C37.4988 10.9006 37.0414 10.826 36.3974 10.826C36.0428 10.826 35.7581 10.8306 35.5434 10.84C35.3381 10.8493 35.1374 10.8586 34.9414 10.868V12.954H36.6074Z" fill="white"/>
<path d="M42.09 10.546C42.4913 10.3126 42.944 10.1446 43.448 10.042C43.952 9.93928 44.4466 9.88795 44.932 9.88795C45.408 9.88795 45.7953 9.96262 46.094 10.112C46.402 10.2613 46.64 10.4573 46.808 10.7C46.9853 10.9333 47.102 11.204 47.158 11.512C47.2233 11.8106 47.256 12.114 47.256 12.422C47.256 12.7766 47.2466 13.1546 47.228 13.556C47.2093 13.9573 47.1953 14.3586 47.186 14.76C47.186 15.2266 47.214 15.67 47.27 16.09H48.208V17H46.346L46.22 15.95H46.15C46.094 16.034 46.01 16.1413 45.898 16.272C45.786 16.4026 45.6366 16.5333 45.45 16.664C45.2726 16.7853 45.0533 16.8926 44.792 16.986C44.5306 17.0793 44.2226 17.126 43.868 17.126C43.1773 17.126 42.6313 16.9486 42.23 16.594C41.8286 16.2393 41.628 15.754 41.628 15.138C41.628 14.662 41.7306 14.2653 41.936 13.948C42.1506 13.6306 42.454 13.388 42.846 13.22C43.238 13.052 43.7093 12.954 44.26 12.926C44.82 12.898 45.4453 12.9353 46.136 13.038C46.1826 12.6086 46.1873 12.254 46.15 11.974C46.122 11.6846 46.0473 11.456 45.926 11.288C45.814 11.12 45.6506 11.0033 45.436 10.938C45.2306 10.8633 44.974 10.826 44.666 10.826C44.246 10.826 43.8446 10.8866 43.462 11.008C43.0793 11.12 42.7386 11.2366 42.44 11.358L42.09 10.546ZM44.148 16.188C44.4093 16.188 44.652 16.146 44.876 16.062C45.1 15.978 45.296 15.8706 45.464 15.74C45.632 15.6093 45.772 15.4693 45.884 15.32C45.996 15.1613 46.08 15.012 46.136 14.872V13.892C45.6506 13.808 45.2026 13.766 44.792 13.766C44.3813 13.766 44.0266 13.8126 43.728 13.906C43.4293 13.99 43.196 14.1253 43.028 14.312C42.86 14.4986 42.776 14.7413 42.776 15.04C42.776 15.348 42.8786 15.6186 43.084 15.852C43.2986 16.076 43.6533 16.188 44.148 16.188Z" fill="white"/>
<path d="M55.0485 13.892H51.2825V17H50.2045V9.99995H51.2825V12.912H55.0485V9.99995H56.1405V17H55.0485V13.892Z" fill="white"/>
<path d="M63.485 12.604L63.527 11.68H63.485L59.551 17H58.557V9.99995H59.649V14.522L59.607 15.404H59.663L63.569 9.99995H64.577V17H63.485V12.604Z" fill="white"/>
<path d="M73.1676 16.118C72.9996 16.2673 72.7989 16.4073 72.5656 16.538C72.3416 16.6686 72.0942 16.7806 71.8236 16.874C71.5529 16.9673 71.2682 17.0373 70.9696 17.084C70.6802 17.14 70.3862 17.168 70.0876 17.168C69.5276 17.168 69.0329 17.084 68.6036 16.916C68.1742 16.7386 67.8149 16.4913 67.5256 16.174C67.2362 15.8473 67.0169 15.46 66.8676 15.012C66.7182 14.564 66.6436 14.06 66.6436 13.5C66.6436 12.912 66.7229 12.3893 66.8816 11.932C67.0496 11.4746 67.2876 11.092 67.5956 10.784C67.9036 10.476 68.2769 10.2426 68.7156 10.084C69.1542 9.91595 69.6442 9.83195 70.1856 9.83195C70.5776 9.83195 70.9649 9.88328 71.3476 9.98595C71.7302 10.0886 72.0662 10.2846 72.3556 10.574C72.6542 10.854 72.8829 11.246 73.0416 11.75C73.2002 12.2446 73.2562 12.8886 73.2096 13.682H67.7916C67.7916 14.522 68.0156 15.152 68.4636 15.572C68.9209 15.9826 69.5276 16.188 70.2836 16.188C70.5356 16.188 70.7829 16.16 71.0256 16.104C71.2776 16.0386 71.5156 15.964 71.7396 15.88C71.9636 15.796 72.1596 15.7026 72.3276 15.6C72.5049 15.4973 72.6402 15.404 72.7336 15.32L73.1676 16.118ZM70.2136 10.756C69.9056 10.756 69.6116 10.7886 69.3316 10.854C69.0609 10.9193 68.8182 11.0313 68.6036 11.19C68.3982 11.3393 68.2256 11.54 68.0856 11.792C67.9549 12.0346 67.8709 12.338 67.8336 12.702H72.1876C72.1409 12.086 71.9402 11.61 71.5856 11.274C71.2402 10.9286 70.7829 10.756 70.2136 10.756Z" fill="white"/>
<path d="M88.9626 12.842L88.9906 11.848H88.9206L86.9046 15.054H86.5126L84.4686 11.848H84.4126L84.4826 12.828V17H83.4466V9.99995H84.5526L86.7786 13.514H86.8066L88.9346 9.99995H90.0546V17H88.9626V12.842Z" fill="white"/>
<path d="M98.3512 16.118C98.1832 16.2673 97.9825 16.4073 97.7492 16.538C97.5252 16.6686 97.2778 16.7806 97.0072 16.874C96.7365 16.9673 96.4518 17.0373 96.1532 17.084C95.8638 17.14 95.5698 17.168 95.2712 17.168C94.7112 17.168 94.2165 17.084 93.7872 16.916C93.3578 16.7386 92.9985 16.4913 92.7092 16.174C92.4198 15.8473 92.2005 15.46 92.0512 15.012C91.9018 14.564 91.8272 14.06 91.8272 13.5C91.8272 12.912 91.9065 12.3893 92.0652 11.932C92.2332 11.4746 92.4712 11.092 92.7792 10.784C93.0872 10.476 93.4605 10.2426 93.8992 10.084C94.3378 9.91595 94.8278 9.83195 95.3692 9.83195C95.7612 9.83195 96.1485 9.88328 96.5312 9.98595C96.9138 10.0886 97.2498 10.2846 97.5392 10.574C97.8378 10.854 98.0665 11.246 98.2252 11.75C98.3838 12.2446 98.4398 12.8886 98.3932 13.682H92.9752C92.9752 14.522 93.1992 15.152 93.6472 15.572C94.1045 15.9826 94.7112 16.188 95.4672 16.188C95.7192 16.188 95.9665 16.16 96.2092 16.104C96.4612 16.0386 96.6992 15.964 96.9232 15.88C97.1472 15.796 97.3432 15.7026 97.5112 15.6C97.6885 15.4973 97.8238 15.404 97.9172 15.32L98.3512 16.118ZM95.3972 10.756C95.0892 10.756 94.7952 10.7886 94.5152 10.854C94.2445 10.9193 94.0018 11.0313 93.7872 11.19C93.5818 11.3393 93.4092 11.54 93.2692 11.792C93.1385 12.0346 93.0545 12.338 93.0172 12.702H97.3712C97.3245 12.086 97.1238 11.61 96.7692 11.274C96.4238 10.9286 95.9665 10.756 95.3972 10.756Z" fill="white"/>
<path d="M100.684 12.45C100.684 12.366 100.679 12.2586 100.67 12.128C100.67 11.988 100.665 11.848 100.656 11.708C100.646 11.5586 100.632 11.414 100.614 11.274C100.604 11.134 100.59 11.0126 100.572 10.91H99.6337V9.99995H101.496L101.636 10.98H101.706C101.958 10.6533 102.275 10.3826 102.658 10.168C103.05 9.94395 103.526 9.83195 104.086 9.83195C105.084 9.83195 105.836 10.1073 106.34 10.658C106.844 11.2086 107.096 12.1093 107.096 13.36C107.096 13.948 107.007 14.48 106.83 14.956C106.662 15.4226 106.419 15.8193 106.102 16.146C105.784 16.4726 105.402 16.7246 104.954 16.902C104.506 17.0793 104.011 17.168 103.47 17.168C103.274 17.168 103.096 17.1586 102.938 17.14C102.788 17.1306 102.648 17.112 102.518 17.084C102.396 17.0653 102.275 17.0373 102.154 17C102.032 16.9626 101.902 16.916 101.762 16.86V19.8H100.684V12.45ZM103.904 10.854C103.624 10.854 103.358 10.9053 103.106 11.008C102.863 11.1106 102.644 11.246 102.448 11.414C102.261 11.582 102.107 11.7686 101.986 11.974C101.864 12.1793 101.79 12.3846 101.762 12.59V15.782C101.967 15.922 102.196 16.034 102.448 16.118C102.709 16.1926 103.05 16.23 103.47 16.23C104.216 16.23 104.814 15.9873 105.262 15.502C105.71 15.0073 105.934 14.2886 105.934 13.346C105.934 12.5526 105.775 11.9413 105.458 11.512C105.15 11.0733 104.632 10.854 103.904 10.854Z" fill="white"/>
<path d="M108.532 13.5C108.532 12.3706 108.826 11.4793 109.414 10.826C110.002 10.1633 110.842 9.83195 111.934 9.83195C112.522 9.83195 113.026 9.92995 113.446 10.126C113.876 10.3126 114.23 10.5693 114.51 10.896C114.79 11.2226 114.996 11.61 115.126 12.058C115.266 12.506 115.336 12.9866 115.336 13.5C115.336 14.06 115.262 14.5686 115.112 15.026C114.963 15.474 114.744 15.8566 114.454 16.174C114.165 16.4913 113.806 16.7386 113.376 16.916C112.956 17.084 112.476 17.168 111.934 17.168C111.356 17.168 110.852 17.0746 110.422 16.888C109.993 16.692 109.638 16.4306 109.358 16.104C109.078 15.7773 108.868 15.39 108.728 14.942C108.598 14.494 108.532 14.0133 108.532 13.5ZM109.694 13.5C109.694 13.8266 109.732 14.1533 109.806 14.48C109.89 14.8066 110.021 15.1006 110.198 15.362C110.376 15.6233 110.604 15.8333 110.884 15.992C111.174 16.1506 111.524 16.23 111.934 16.23C112.681 16.23 113.241 16.0013 113.614 15.544C113.997 15.0773 114.188 14.396 114.188 13.5C114.188 13.164 114.146 12.8373 114.062 12.52C113.988 12.1933 113.857 11.8993 113.67 11.638C113.493 11.3766 113.26 11.1666 112.97 11.008C112.69 10.8493 112.345 10.77 111.934 10.77C111.188 10.77 110.628 10.9986 110.254 11.456C109.881 11.9133 109.694 12.5946 109.694 13.5Z" fill="white"/>
<path d="M122.149 10.952H118.495V17H117.417V9.99995H123.241V17H122.149V10.952Z" fill="white"/>
<path d="M125.867 12.45C125.867 12.366 125.863 12.2586 125.853 12.128C125.853 11.988 125.849 11.848 125.839 11.708C125.83 11.5586 125.816 11.414 125.797 11.274C125.788 11.134 125.774 11.0126 125.755 10.91H124.817V9.99995H126.679L126.819 10.98H126.889C127.141 10.6533 127.459 10.3826 127.841 10.168C128.233 9.94395 128.709 9.83195 129.269 9.83195C130.268 9.83195 131.019 10.1073 131.523 10.658C132.027 11.2086 132.279 12.1093 132.279 13.36C132.279 13.948 132.191 14.48 132.013 14.956C131.845 15.4226 131.603 15.8193 131.285 16.146C130.968 16.4726 130.585 16.7246 130.137 16.902C129.689 17.0793 129.195 17.168 128.653 17.168C128.457 17.168 128.28 17.1586 128.121 17.14C127.972 17.1306 127.832 17.112 127.701 17.084C127.58 17.0653 127.459 17.0373 127.337 17C127.216 16.9626 127.085 16.916 126.945 16.86V19.8H125.867V12.45ZM129.087 10.854C128.807 10.854 128.541 10.9053 128.289 11.008C128.047 11.1106 127.827 11.246 127.631 11.414C127.445 11.582 127.291 11.7686 127.169 11.974C127.048 12.1793 126.973 12.3846 126.945 12.59V15.782C127.151 15.922 127.379 16.034 127.631 16.118C127.893 16.1926 128.233 16.23 128.653 16.23C129.4 16.23 129.997 15.9873 130.445 15.502C130.893 15.0073 131.117 14.2886 131.117 13.346C131.117 12.5526 130.959 11.9413 130.641 11.512C130.333 11.0733 129.815 10.854 129.087 10.854Z" fill="white"/>
<path d="M139.036 12.604L139.078 11.68H139.036L135.102 17H134.108V9.99995H135.2V14.522L135.158 15.404H135.214L139.12 9.99995H140.128V17H139.036V12.604Z" fill="white"/>
<path d="M147.052 14.27H145.372L143.608 17H142.208V16.062H142.936L144.21 14.158C144.033 14.1113 143.86 14.0366 143.692 13.934C143.524 13.822 143.37 13.6866 143.23 13.528C143.1 13.36 142.992 13.1686 142.908 12.954C142.834 12.73 142.796 12.4826 142.796 12.212C142.796 11.792 142.88 11.4326 143.048 11.134C143.216 10.826 143.45 10.574 143.748 10.378C144.047 10.182 144.402 10.042 144.812 9.95795C145.223 9.86462 145.676 9.81795 146.17 9.81795C146.525 9.81795 146.861 9.84595 147.178 9.90195C147.496 9.94862 147.818 9.99995 148.144 10.056V17H147.052V14.27ZM147.052 13.43V10.938C146.922 10.8913 146.768 10.8493 146.59 10.812C146.413 10.7746 146.259 10.756 146.128 10.756C145.419 10.756 144.878 10.868 144.504 11.092C144.131 11.3066 143.944 11.652 143.944 12.128C143.944 12.5106 144.056 12.8093 144.28 13.024C144.504 13.2293 144.775 13.3646 145.092 13.43H147.052Z" fill="white"/>
<path d="M150.435 9.99995H157.379V12.618H156.427V10.952H154.453V16.062H156.147V17H151.611V16.062H153.361V10.952H151.387V12.618H150.435V9.99995Z" fill="white"/>
<path d="M164.219 12.604L164.261 11.68H164.219L160.285 17H159.291V9.99995H160.383V14.522L160.341 15.404H160.397L164.303 9.99995H165.311V17H164.219V12.604Z" fill="white"/>
<path d="M172.236 14.27H170.556L168.792 17H167.392V16.062H168.12L169.394 14.158C169.217 14.1113 169.044 14.0366 168.876 13.934C168.708 13.822 168.554 13.6866 168.414 13.528C168.283 13.36 168.176 13.1686 168.092 12.954C168.017 12.73 167.98 12.4826 167.98 12.212C167.98 11.792 168.064 11.4326 168.232 11.134C168.4 10.826 168.633 10.574 168.932 10.378C169.231 10.182 169.585 10.042 169.996 9.95795C170.407 9.86462 170.859 9.81795 171.354 9.81795C171.709 9.81795 172.045 9.84595 172.362 9.90195C172.679 9.94862 173.001 9.99995 173.328 10.056V17H172.236V14.27ZM172.236 13.43V10.938C172.105 10.8913 171.951 10.8493 171.774 10.812C171.597 10.7746 171.443 10.756 171.312 10.756C170.603 10.756 170.061 10.868 169.688 11.092C169.315 11.3066 169.128 11.652 169.128 12.128C169.128 12.5106 169.24 12.8093 169.464 13.024C169.688 13.2293 169.959 13.3646 170.276 13.43H172.236Z" fill="white"/>
<path d="M55.9103 102.96L55.8983 102.924C56.1463 102.78 56.4503 102.668 56.8103 102.588C57.1783 102.5 57.5703 102.456 57.9863 102.456C58.4983 102.456 58.9663 102.536 59.3903 102.696C59.8223 102.856 60.1903 103.112 60.4943 103.464C60.8063 103.808 61.0463 104.256 61.2143 104.808C61.3903 105.36 61.4783 106.024 61.4783 106.8C61.4783 107.584 61.3783 108.252 61.1783 108.804C60.9863 109.356 60.7183 109.808 60.3743 110.16C60.0383 110.504 59.6423 110.756 59.1863 110.916C58.7303 111.068 58.2463 111.144 57.7343 111.144C57.5343 111.144 57.3303 111.124 57.1223 111.084C56.9223 111.052 56.7303 111.012 56.5463 110.964C56.3703 110.908 56.2063 110.852 56.0543 110.796C55.9103 110.732 55.7983 110.676 55.7183 110.628V108.852H56.6063V110.052C56.7823 110.116 56.9783 110.176 57.1943 110.232C57.4183 110.28 57.6663 110.304 57.9383 110.304C58.2503 110.304 58.5583 110.248 58.8623 110.136C59.1663 110.024 59.4383 109.844 59.6783 109.596C59.9183 109.348 60.1103 109.024 60.2543 108.624C60.4063 108.224 60.4823 107.732 60.4823 107.148H57.5063V106.26H60.4703C60.4543 105.74 60.3783 105.296 60.2423 104.928C60.1063 104.552 59.9223 104.244 59.6903 104.004C59.4583 103.764 59.1863 103.588 58.8743 103.476C58.5703 103.356 58.2343 103.296 57.8663 103.296C57.6583 103.296 57.4663 103.312 57.2903 103.344C57.1143 103.368 56.9503 103.4 56.7983 103.44V104.7H55.9103V102.96Z" fill="white"/>
<path d="M62.8176 105H68.7696V107.244H67.9536V105.816H66.2616V110.196H67.7136V111H63.8256V110.196H65.3256V105.816H63.6336V107.244H62.8176V105Z" fill="white"/>
<path d="M70.0729 108C70.0729 107.032 70.3249 106.268 70.8289 105.708C71.3329 105.14 72.0529 104.856 72.9889 104.856C73.4929 104.856 73.9249 104.94 74.2849 105.108C74.6529 105.268 74.9569 105.488 75.1969 105.768C75.4369 106.048 75.6129 106.38 75.7249 106.764C75.8449 107.148 75.9049 107.56 75.9049 108C75.9049 108.48 75.8409 108.916 75.7129 109.308C75.5849 109.692 75.3969 110.02 75.1489 110.292C74.9009 110.564 74.5929 110.776 74.2249 110.928C73.8649 111.072 73.4529 111.144 72.9889 111.144C72.4929 111.144 72.0609 111.064 71.6929 110.904C71.3249 110.736 71.0209 110.512 70.7809 110.232C70.5409 109.952 70.3609 109.62 70.2409 109.236C70.1289 108.852 70.0729 108.44 70.0729 108ZM71.0689 108C71.0689 108.28 71.1009 108.56 71.1649 108.84C71.2369 109.12 71.3489 109.372 71.5009 109.596C71.6529 109.82 71.8489 110 72.0889 110.136C72.3369 110.272 72.6369 110.34 72.9889 110.34C73.6289 110.34 74.1089 110.144 74.4289 109.752C74.7569 109.352 74.9209 108.768 74.9209 108C74.9209 107.712 74.8849 107.432 74.8129 107.16C74.7489 106.88 74.6369 106.628 74.4769 106.404C74.3249 106.18 74.1249 106 73.8769 105.864C73.6369 105.728 73.3409 105.66 72.9889 105.66C72.3489 105.66 71.8689 105.856 71.5489 106.248C71.2289 106.64 71.0689 107.224 71.0689 108Z" fill="white"/>
<path d="M84.4635 108C84.4635 107.032 84.7155 106.268 85.2195 105.708C85.7235 105.14 86.4435 104.856 87.3795 104.856C87.8835 104.856 88.3155 104.94 88.6755 105.108C89.0435 105.268 89.3475 105.488 89.5875 105.768C89.8275 106.048 90.0035 106.38 90.1155 106.764C90.2355 107.148 90.2955 107.56 90.2955 108C90.2955 108.48 90.2315 108.916 90.1035 109.308C89.9755 109.692 89.7875 110.02 89.5395 110.292C89.2915 110.564 88.9835 110.776 88.6155 110.928C88.2555 111.072 87.8435 111.144 87.3795 111.144C86.8835 111.144 86.4515 111.064 86.0835 110.904C85.7155 110.736 85.4115 110.512 85.1715 110.232C84.9315 109.952 84.7515 109.62 84.6315 109.236C84.5195 108.852 84.4635 108.44 84.4635 108ZM85.4595 108C85.4595 108.28 85.4915 108.56 85.5555 108.84C85.6275 109.12 85.7395 109.372 85.8915 109.596C86.0435 109.82 86.2395 110 86.4795 110.136C86.7275 110.272 87.0275 110.34 87.3795 110.34C88.0195 110.34 88.4995 110.144 88.8195 109.752C89.1475 109.352 89.3115 108.768 89.3115 108C89.3115 107.712 89.2755 107.432 89.2035 107.16C89.1395 106.88 89.0275 106.628 88.8675 106.404C88.7155 106.18 88.5155 106 88.2675 105.864C88.0275 105.728 87.7315 105.66 87.3795 105.66C86.7395 105.66 86.2595 105.856 85.9395 106.248C85.6195 106.64 85.4595 107.224 85.4595 108Z" fill="white"/>
<path d="M96.1828 108.336H92.9548V111H92.0308V105H92.9548V107.496H96.1828V105H97.1188V111H96.1828V108.336Z" fill="white"/>
<path d="M103.282 105.816H101.206C101.174 106.544 101.134 107.228 101.086 107.868C101.038 108.5 100.946 109.052 100.81 109.524C100.682 109.996 100.494 110.368 100.246 110.64C100.006 110.912 99.6781 111.048 99.2621 111.048C99.1021 111.048 98.9861 111.04 98.9141 111.024C98.8421 111.008 98.7541 110.98 98.6501 110.94L98.8061 110.052C98.9581 110.092 99.0981 110.112 99.2261 110.112C99.3621 110.112 99.4821 110.064 99.5861 109.968C99.6901 109.872 99.7821 109.72 99.8621 109.512C99.9501 109.296 100.022 108.996 100.078 108.612C100.142 108.22 100.194 107.732 100.234 107.148C100.274 106.556 100.306 105.84 100.33 105H104.218V111H103.282V105.816Z" fill="white"/>
<path d="M106.661 105.468C107.005 105.268 107.393 105.124 107.825 105.036C108.257 104.948 108.681 104.904 109.097 104.904C109.505 104.904 109.837 104.968 110.093 105.096C110.357 105.224 110.561 105.392 110.705 105.6C110.857 105.8 110.957 106.032 111.005 106.296C111.061 106.552 111.089 106.812 111.089 107.076C111.089 107.38 111.081 107.704 111.065 108.048C111.049 108.392 111.037 108.736 111.029 109.08C111.029 109.48 111.053 109.86 111.101 110.22H111.905V111H110.309L110.201 110.1H110.141C110.093 110.172 110.021 110.264 109.925 110.376C109.829 110.488 109.701 110.6 109.541 110.712C109.389 110.816 109.201 110.908 108.977 110.988C108.753 111.068 108.489 111.108 108.185 111.108C107.593 111.108 107.125 110.956 106.781 110.652C106.437 110.348 106.265 109.932 106.265 109.404C106.265 108.996 106.353 108.656 106.529 108.384C106.713 108.112 106.973 107.904 107.309 107.76C107.645 107.616 108.049 107.532 108.521 107.508C109.001 107.484 109.537 107.516 110.129 107.604C110.169 107.236 110.173 106.932 110.141 106.692C110.117 106.444 110.053 106.248 109.949 106.104C109.853 105.96 109.713 105.86 109.529 105.804C109.353 105.74 109.133 105.708 108.869 105.708C108.509 105.708 108.165 105.76 107.837 105.864C107.509 105.96 107.217 106.06 106.961 106.164L106.661 105.468ZM108.425 110.304C108.649 110.304 108.857 110.268 109.049 110.196C109.241 110.124 109.409 110.032 109.553 109.92C109.697 109.808 109.817 109.688 109.913 109.56C110.009 109.424 110.081 109.296 110.129 109.176V108.336C109.713 108.264 109.329 108.228 108.977 108.228C108.625 108.228 108.321 108.268 108.065 108.348C107.809 108.42 107.609 108.536 107.465 108.696C107.321 108.856 107.249 109.064 107.249 109.32C107.249 109.584 107.337 109.816 107.513 110.016C107.697 110.208 108.001 110.304 108.425 110.304Z" fill="white"/>
<path d="M117.805 107.232L117.841 106.44H117.805L114.433 111H113.581V105H114.517V108.876L114.481 109.632H114.529L117.877 105H118.741V111H117.805V107.232ZM115.141 102.576C115.221 102.944 115.357 103.2 115.549 103.344C115.749 103.488 115.977 103.56 116.233 103.56C116.489 103.56 116.717 103.484 116.917 103.332C117.117 103.18 117.253 102.932 117.325 102.588L118.045 102.816C117.973 103.28 117.765 103.636 117.421 103.884C117.085 104.132 116.681 104.256 116.209 104.256C115.993 104.256 115.777 104.228 115.561 104.172C115.353 104.116 115.165 104.032 114.997 103.92C114.829 103.808 114.685 103.664 114.565 103.488C114.445 103.312 114.365 103.104 114.325 102.864L115.141 102.576Z" fill="white"/>
<path d="M124.964 108.336H121.736V111H120.812V105H121.736V107.496H124.964V105H125.9V111H124.964V108.336Z" fill="white"/>
<path d="M134.771 105H140.723V107.244H139.907V105.816H138.215V110.196H139.667V111H135.779V110.196H137.279V105.816H135.587V107.244H134.771V105Z" fill="white"/>
<path d="M145.074 110.076H145.53L147.018 105H147.99L146.322 110.388C146.234 110.668 146.142 110.984 146.046 111.336C145.958 111.696 145.83 112.032 145.662 112.344C145.494 112.656 145.266 112.92 144.978 113.136C144.69 113.352 144.314 113.46 143.85 113.46C143.746 113.46 143.634 113.448 143.514 113.424C143.402 113.4 143.29 113.368 143.178 113.328C143.066 113.296 142.962 113.256 142.866 113.208C142.77 113.16 142.698 113.112 142.65 113.064L142.986 112.2C143.034 112.24 143.098 112.28 143.178 112.32C143.266 112.36 143.358 112.392 143.454 112.416C143.558 112.448 143.658 112.472 143.754 112.488C143.85 112.512 143.93 112.524 143.994 112.524C144.594 112.524 145.002 112.016 145.218 111H144.414L141.894 105H142.974L145.074 110.076Z" fill="white"/>
<path d="M153.805 105.924C153.621 105.86 153.421 105.808 153.205 105.768C152.997 105.72 152.789 105.696 152.581 105.696C151.797 105.696 151.213 105.88 150.829 106.248C150.445 106.616 150.253 107.2 150.253 108C150.253 108.352 150.309 108.668 150.421 108.948C150.533 109.22 150.693 109.452 150.901 109.644C151.109 109.836 151.357 109.984 151.645 110.088C151.941 110.192 152.265 110.244 152.617 110.244C152.993 110.244 153.357 110.18 153.709 110.052C154.069 109.924 154.369 109.756 154.609 109.548L155.029 110.244C154.917 110.34 154.777 110.44 154.609 110.544C154.441 110.648 154.245 110.748 154.021 110.844C153.805 110.932 153.561 111.004 153.289 111.06C153.025 111.116 152.737 111.144 152.425 111.144C151.905 111.144 151.445 111.072 151.045 110.928C150.653 110.776 150.325 110.564 150.061 110.292C149.797 110.012 149.597 109.68 149.461 109.296C149.325 108.904 149.257 108.472 149.257 108C149.257 107.496 149.325 107.048 149.461 106.656C149.605 106.264 149.809 105.936 150.073 105.672C150.337 105.408 150.657 105.208 151.033 105.072C151.409 104.928 151.829 104.856 152.293 104.856C152.885 104.856 153.365 104.908 153.733 105.012C154.109 105.116 154.425 105.232 154.681 105.36L154.669 105.396V107.064H153.805V105.924Z" fill="white"/>
<path d="M156.417 108C156.417 107.032 156.669 106.268 157.173 105.708C157.677 105.14 158.397 104.856 159.333 104.856C159.837 104.856 160.269 104.94 160.629 105.108C160.997 105.268 161.301 105.488 161.541 105.768C161.781 106.048 161.957 106.38 162.069 106.764C162.189 107.148 162.249 107.56 162.249 108C162.249 108.48 162.185 108.916 162.057 109.308C161.929 109.692 161.741 110.02 161.493 110.292C161.245 110.564 160.937 110.776 160.569 110.928C160.209 111.072 159.797 111.144 159.333 111.144C158.837 111.144 158.405 111.064 158.037 110.904C157.669 110.736 157.365 110.512 157.125 110.232C156.885 109.952 156.705 109.62 156.585 109.236C156.473 108.852 156.417 108.44 156.417 108ZM157.413 108C157.413 108.28 157.445 108.56 157.509 108.84C157.581 109.12 157.693 109.372 157.845 109.596C157.997 109.82 158.193 110 158.433 110.136C158.681 110.272 158.981 110.34 159.333 110.34C159.973 110.34 160.453 110.144 160.773 109.752C161.101 109.352 161.265 108.768 161.265 108C161.265 107.712 161.229 107.432 161.157 107.16C161.093 106.88 160.981 106.628 160.821 106.404C160.669 106.18 160.469 106 160.221 105.864C159.981 105.728 159.685 105.66 159.333 105.66C158.693 105.66 158.213 105.856 157.893 106.248C157.573 106.64 157.413 107.224 157.413 108Z" fill="white"/>
<path d="M164.368 105.012C164.52 105.004 164.672 104.996 164.824 104.988C164.976 104.972 165.14 104.96 165.316 104.952C165.492 104.944 165.68 104.936 165.88 104.928C166.088 104.92 166.32 104.916 166.576 104.916C167.44 104.916 168.064 105.04 168.448 105.288C168.832 105.528 169.024 105.892 169.024 106.38C169.024 106.66 168.932 106.94 168.748 107.22C168.564 107.492 168.264 107.688 167.848 107.808V107.856C168.376 107.944 168.748 108.108 168.964 108.348C169.18 108.58 169.288 108.9 169.288 109.308C169.288 109.932 169.032 110.384 168.52 110.664C168.016 110.944 167.28 111.084 166.312 111.084C165.928 111.084 165.584 111.072 165.28 111.048C164.976 111.032 164.672 111.012 164.368 110.988V105.012ZM165.292 110.244C165.476 110.26 165.66 110.272 165.844 110.28C166.028 110.288 166.236 110.292 166.468 110.292C167.092 110.292 167.556 110.216 167.86 110.064C168.172 109.904 168.328 109.632 168.328 109.248C168.328 109.096 168.296 108.96 168.232 108.84C168.176 108.72 168.076 108.616 167.932 108.528C167.796 108.44 167.616 108.372 167.392 108.324C167.168 108.276 166.888 108.252 166.552 108.252H165.292V110.244ZM166.72 107.532C166.88 107.532 167.04 107.508 167.2 107.46C167.36 107.404 167.504 107.336 167.632 107.256C167.768 107.168 167.876 107.068 167.956 106.956C168.036 106.836 168.076 106.712 168.076 106.584C168.076 106.256 167.956 106.028 167.716 105.9C167.484 105.772 167.092 105.708 166.54 105.708C166.236 105.708 165.992 105.712 165.808 105.72C165.632 105.728 165.46 105.736 165.292 105.744V107.532H166.72Z" fill="white"/>
<path d="M173.015 108.288H172.355V111H171.431V105H172.355V107.568H173.015L175.379 105H176.507L173.855 107.844L176.039 110.196H176.819V111H175.583L173.015 108.288Z" fill="white"/>
<path d="M178.615 105.468C178.959 105.268 179.347 105.124 179.779 105.036C180.211 104.948 180.635 104.904 181.051 104.904C181.459 104.904 181.791 104.968 182.047 105.096C182.311 105.224 182.515 105.392 182.659 105.6C182.811 105.8 182.911 106.032 182.959 106.296C183.015 106.552 183.043 106.812 183.043 107.076C183.043 107.38 183.035 107.704 183.019 108.048C183.003 108.392 182.991 108.736 182.983 109.08C182.983 109.48 183.007 109.86 183.055 110.22H183.859V111H182.263L182.155 110.1H182.095C182.047 110.172 181.975 110.264 181.879 110.376C181.783 110.488 181.655 110.6 181.495 110.712C181.343 110.816 181.155 110.908 180.931 110.988C180.707 111.068 180.443 111.108 180.139 111.108C179.547 111.108 179.079 110.956 178.735 110.652C178.391 110.348 178.219 109.932 178.219 109.404C178.219 108.996 178.307 108.656 178.483 108.384C178.667 108.112 178.927 107.904 179.263 107.76C179.599 107.616 180.003 107.532 180.475 107.508C180.955 107.484 181.491 107.516 182.083 107.604C182.123 107.236 182.127 106.932 182.095 106.692C182.071 106.444 182.007 106.248 181.903 106.104C181.807 105.96 181.667 105.86 181.483 105.804C181.307 105.74 181.087 105.708 180.823 105.708C180.463 105.708 180.119 105.76 179.791 105.864C179.463 105.96 179.171 106.06 178.915 106.164L178.615 105.468ZM180.379 110.304C180.603 110.304 180.811 110.268 181.003 110.196C181.195 110.124 181.363 110.032 181.507 109.92C181.651 109.808 181.771 109.688 181.867 109.56C181.963 109.424 182.035 109.296 182.083 109.176V108.336C181.667 108.264 181.283 108.228 180.931 108.228C180.579 108.228 180.275 108.268 180.019 108.348C179.763 108.42 179.563 108.536 179.419 108.696C179.275 108.856 179.203 109.064 179.203 109.32C179.203 109.584 179.291 109.816 179.467 110.016C179.651 110.208 179.955 110.304 180.379 110.304Z" fill="white"/>
<path d="M8.5 107C8.5 101.753 12.7533 97.5 18 97.5H36C41.2467 97.5 45.5 101.753 45.5 107C45.5 112.247 41.2467 116.5 36 116.5H18C12.7533 116.5 8.5 112.247 8.5 107Z" stroke="white" stroke-width="3"/>
<path fill-rule="evenodd" clip-rule="evenodd" d="M17.998 112C20.7595 112 22.998 109.761 22.998 107C22.998 104.239 20.7595 102 17.998 102C15.2366 102 12.998 104.239 12.998 107C12.998 109.761 15.2366 112 17.998 112Z" fill="white"/>
</svg>
