<svg width="318" height="318" viewBox="0 0 318 318" fill="none" xmlns="http://www.w3.org/2000/svg">
<path d="M283.998 60.5376L291.27 70.5478L159 159L283.998 60.5376Z" fill="#EEEEEE"/>
<path d="M297.862 81.3037L303.48 92.3285L159 159L297.862 81.3037Z" fill="#EEEEEE"/>
<path d="M308.305 103.981L312.129 115.752L159 159L308.305 103.981Z" fill="#EEEEEE"/>
<path d="M315.074 128.017L317.01 140.239L159 159L315.074 128.017Z" fill="#EEEEEE"/>
<path d="M318 152.813V165.187L159 159L318 152.813Z" fill="#EEEEEE"/>
<path d="M317.01 177.761L315.074 189.983L159 159L317.01 177.761Z" fill="#EEEEEE"/>
<path d="M312.129 202.249L308.305 214.019L159 159L312.129 202.249Z" fill="#EEEEEE"/>
<path d="M303.48 225.672L297.862 236.697L159 159L303.48 225.672Z" fill="#EEEEEE"/>
<path d="M291.27 247.452L283.998 257.462L159 159L291.27 247.452Z" fill="#EEEEEE"/>
<path d="M275.806 267.055L267.055 275.806L159 159L275.806 267.055Z" fill="#EEEEEE"/>
<path d="M257.462 283.998L247.452 291.27L159 159L257.462 283.998Z" fill="#EEEEEE"/>
<path d="M236.697 297.862L225.672 303.48L159 159L236.697 297.862Z" fill="#EEEEEE"/>
<path d="M214.019 308.305L202.249 312.129L159 159L214.019 308.305Z" fill="#EEEEEE"/>
<path d="M189.983 315.074L177.761 317.01L159 159L189.983 315.074Z" fill="#EEEEEE"/>
<path d="M165.186 318H152.812L158.999 159L165.186 318Z" fill="#EEEEEE"/>
<path d="M140.238 317.01L128.016 315.074L158.999 159L140.238 317.01Z" fill="#EEEEEE"/>
<path d="M115.751 312.129L103.98 308.305L158.999 159L115.751 312.129Z" fill="#EEEEEE"/>
<path d="M92.3295 303.48L81.3047 297.862L159.001 159L92.3295 303.48Z" fill="#EEEEEE"/>
<path d="M70.5454 291.27L60.5352 283.998L158.998 159L70.5454 291.27Z" fill="#EEEEEE"/>
<path d="M50.9426 275.806L42.1914 267.055L158.998 159L50.9426 275.806Z" fill="#EEEEEE"/>
<path d="M33.9991 257.462L26.7266 247.452L158.997 159L33.9991 257.462Z" fill="#EEEEEE"/>
<path d="M20.1371 236.697L14.5195 225.672L158.999 159L20.1371 236.697Z" fill="#EEEEEE"/>
<path d="M9.69061 214.019L5.86719 202.249L158.996 159L9.69061 214.019Z" fill="#EEEEEE"/>
<path d="M2.92474 189.983L0.988281 177.761L158.998 159L2.92474 189.983Z" fill="#EEEEEE"/>
<path d="M0 165.187V152.813L159 159L0 165.187Z" fill="#EEEEEE"/>
<path d="M0.988281 140.239L2.92474 128.017L158.998 159L0.988281 140.239Z" fill="#EEEEEE"/>
<path d="M5.86719 115.752L9.69061 103.981L158.996 159L5.86719 115.752Z" fill="#EEEEEE"/>
<path d="M14.5195 92.3285L20.1371 81.3037L158.999 159L14.5195 92.3285Z" fill="#EEEEEE"/>
<path d="M26.7266 70.5478L33.9991 60.5376L158.997 159L26.7266 70.5478Z" fill="#EEEEEE"/>
<path d="M42.1914 50.9445L50.9426 42.1934L158.998 159L42.1914 50.9445Z" fill="#EEEEEE"/>
<path d="M60.5352 34.002L70.5454 26.7295L158.998 159L60.5352 34.002Z" fill="#EEEEEE"/>
<path d="M81.3047 20.1381L92.3295 14.5205L159.001 159L81.3047 20.1381Z" fill="#EEEEEE"/>
<path d="M103.98 9.69452L115.751 5.87109L158.999 159L103.98 9.69452Z" fill="#EEEEEE"/>
<path d="M128.016 2.92621L140.238 0.989746L158.999 159L128.016 2.92621Z" fill="#EEEEEE"/>
<path d="M152.812 0H165.186L158.999 159L152.812 0Z" fill="#EEEEEE"/>
<path d="M177.761 0.989746L189.983 2.92621L159 159L177.761 0.989746Z" fill="#EEEEEE"/>
<path d="M202.249 5.87109L214.019 9.69452L159 159L202.249 5.87109Z" fill="#EEEEEE"/>
<path d="M225.672 14.5205L236.697 20.1381L159 159L225.672 14.5205Z" fill="#EEEEEE"/>
<path d="M247.452 26.7295L257.462 34.002L159 159L247.452 26.7295Z" fill="#EEEEEE"/>
<path d="M267.055 42.1934L275.806 50.9445L159 159L267.055 42.1934Z" fill="#EEEEEE"/>
<path d="M283.998 60.5376L291.27 70.5478L159 159L283.998 60.5376Z" fill="#EEEEEE"/>
<path d="M297.862 81.3037L303.48 92.3285L159 159L297.862 81.3037Z" fill="#EEEEEE"/>
<path d="M308.305 103.981L312.129 115.752L159 159L308.305 103.981Z" fill="#EEEEEE"/>
<path d="M315.074 128.017L317.01 140.239L159 159L315.074 128.017Z" fill="#EEEEEE"/>
<path d="M318 152.813V165.187L159 159L318 152.813Z" fill="#EEEEEE"/>
<path d="M317.01 177.761L315.074 189.983L159 159L317.01 177.761Z" fill="#EEEEEE"/>
<path d="M312.129 202.249L308.305 214.019L159 159L312.129 202.249Z" fill="#EEEEEE"/>
<path d="M303.48 225.672L297.862 236.697L159 159L303.48 225.672Z" fill="#EEEEEE"/>
<path d="M291.27 247.452L283.998 257.462L159 159L291.27 247.452Z" fill="#EEEEEE"/>
<path d="M275.806 267.055L267.055 275.806L159 159L275.806 267.055Z" fill="#EEEEEE"/>
<path d="M257.462 283.998L247.452 291.27L159 159L257.462 283.998Z" fill="#EEEEEE"/>
<path d="M236.697 297.862L225.672 303.48L159 159L236.697 297.862Z" fill="#EEEEEE"/>
<path d="M214.019 308.305L202.249 312.129L159 159L214.019 308.305Z" fill="#EEEEEE"/>
<path d="M189.983 315.074L177.761 317.01L159 159L189.983 315.074Z" fill="#EEEEEE"/>
<path d="M165.186 318H152.812L158.999 159L165.186 318Z" fill="#EEEEEE"/>
</svg>
