<svg width="40" height="40" viewBox="0 0 40 40" fill="none" xmlns="http://www.w3.org/2000/svg">
<g filter="url(#filter0_b)">
<g filter="url(#filter1_b)">
<path d="M28.4878 15.9981C27.6325 14.1792 25.8384 13 23.8982 13C21.9581 13 20.7064 13.8195 19.9762 14.6989C19.246 13.8195 17.9943 13 16.0542 13C14.114 13 12.3199 14.1792 11.4646 15.9981C10.5884 17.8969 10.9639 19.9955 12.4868 21.6344C16.1376 25.5719 19.3712 28.3501 19.4129 28.3701C19.5798 28.51 19.7676 28.57 19.9762 28.57C20.1848 28.57 20.3726 28.51 20.5395 28.3701C20.5812 28.3501 23.7939 25.5519 27.4656 21.6344C29.0094 19.9955 29.3849 17.8969 28.4878 15.9981Z" stroke="white" stroke-width="3" stroke-miterlimit="16"/>
<rect x="1.5" y="1.5" width="37" height="37" rx="18.5" stroke="white" stroke-width="3"/>
</g>
</g>
<defs>
<filter id="filter0_b" x="-20" y="-20" width="80" height="80" filterUnits="userSpaceOnUse" color-interpolation-filters="sRGB">
<feFlood flood-opacity="0" result="BackgroundImageFix"/>
<feGaussianBlur in="BackgroundImage" stdDeviation="10"/>
<feComposite in2="SourceAlpha" operator="in" result="effect1_backgroundBlur"/>
<feBlend mode="normal" in="SourceGraphic" in2="effect1_backgroundBlur" result="shape"/>
</filter>
<filter id="filter1_b" x="-16" y="-16" width="72" height="72" filterUnits="userSpaceOnUse" color-interpolation-filters="sRGB">
<feFlood flood-opacity="0" result="BackgroundImageFix"/>
<feGaussianBlur in="BackgroundImage" stdDeviation="8"/>
<feComposite in2="SourceAlpha" operator="in" result="effect1_backgroundBlur"/>
<feBlend mode="normal" in="SourceGraphic" in2="effect1_backgroundBlur" result="shape"/>
</filter>
</defs>
</svg>
