<svg width="40" height="40" viewBox="0 0 40 40" fill="none" xmlns="http://www.w3.org/2000/svg">
<path d="M24 16.6667C25.3807 16.6667 26.5 15.5475 26.5 14.1667C26.5 12.786 25.3807 11.6667 24 11.6667C22.6193 11.6667 21.5 12.786 21.5 14.1667C21.5 15.5475 22.6193 16.6667 24 16.6667Z" fill="white" stroke="white" stroke-width="2" stroke-linecap="round" stroke-linejoin="round"/>
<path d="M14 22.5C15.3807 22.5 16.5 21.3807 16.5 20C16.5 18.6193 15.3807 17.5 14 17.5C12.6193 17.5 11.5 18.6193 11.5 20C11.5 21.3807 12.6193 22.5 14 22.5Z" fill="white" stroke="white" stroke-width="2" stroke-linecap="round" stroke-linejoin="round"/>
<path d="M24 28.3333C25.3807 28.3333 26.5 27.214 26.5 25.8333C26.5 24.4525 25.3807 23.3333 24 23.3333C22.6193 23.3333 21.5 24.4525 21.5 25.8333C21.5 27.214 22.6193 28.3333 24 28.3333Z" fill="white" stroke="white" stroke-width="2" stroke-linecap="round" stroke-linejoin="round"/>
<path d="M16.1584 21.2583L21.8501 24.575" stroke="white" stroke-width="3" stroke-linecap="round" stroke-linejoin="round"/>
<path d="M21.8418 15.425L16.1584 18.7417" stroke="white" stroke-width="3" stroke-linecap="round" stroke-linejoin="round"/>
<rect x="1.5" y="1.5" width="37" height="37" rx="18.5" stroke="white" stroke-width="3"/>
</svg>
