<svg width="583" height="47" viewBox="0 0 583 47" fill="none" xmlns="http://www.w3.org/2000/svg">
<path d="M60.5654 11.0093L279.935 11.0093" stroke="white" stroke-width="3"/>
<path d="M294.565 11.0093C447.565 11.0093 513.936 11.0093 513.936 11.0093" stroke="white" stroke-width="3"/>
<circle cx="522.936" cy="10" r="8.5" stroke="white" stroke-width="3"/>
<circle cx="286.565" cy="10" r="8.5" stroke="white" stroke-width="3"/>
<circle cx="51.5654" cy="11" r="8.5" fill="white" stroke="white" stroke-width="3"/>
<path d="M1.67188 39.1C1.67188 37.476 1.95654 36.2253 2.52588 35.348C3.10454 34.4706 3.99121 34.032 5.18588 34.032C5.83921 34.032 6.38988 34.1533 6.83788 34.396C7.29521 34.6386 7.66388 34.984 7.94388 35.432C8.22388 35.8706 8.42454 36.4026 8.54588 37.028C8.66721 37.644 8.72788 38.3346 8.72788 39.1C8.72788 40.724 8.43854 41.9746 7.85988 42.852C7.29054 43.7293 6.39921 44.168 5.18588 44.168C4.54188 44.168 3.99588 44.0466 3.54788 43.804C3.09988 43.5613 2.73588 43.2206 2.45588 42.782C2.17588 42.334 1.97521 41.802 1.85388 41.186C1.73254 40.5606 1.67188 39.8653 1.67188 39.1ZM2.90388 39.1C2.90388 39.6413 2.93654 40.1546 3.00187 40.64C3.07654 41.1253 3.20254 41.5546 3.37988 41.928C3.55721 42.292 3.79054 42.586 4.07988 42.81C4.36921 43.0246 4.73788 43.132 5.18588 43.132C5.98854 43.132 6.57188 42.8053 6.93588 42.152C7.30921 41.4986 7.49588 40.4813 7.49588 39.1C7.49588 38.568 7.45854 38.0593 7.38388 37.574C7.31854 37.0793 7.19721 36.65 7.01988 36.286C6.84254 35.9126 6.60454 35.6186 6.30588 35.404C6.00721 35.18 5.63388 35.068 5.18588 35.068C4.39254 35.068 3.81388 35.3993 3.44988 36.062C3.08588 36.7153 2.90388 37.728 2.90388 39.1Z" fill="white"/>
<path d="M15.5404 38.078C15.3257 38.0033 15.0924 37.9426 14.8404 37.896C14.5977 37.84 14.3551 37.812 14.1124 37.812C13.1977 37.812 12.5164 38.0266 12.0684 38.456C11.6204 38.8853 11.3964 39.5666 11.3964 40.5C11.3964 40.9106 11.4617 41.2793 11.5924 41.606C11.7231 41.9233 11.9097 42.194 12.1524 42.418C12.3951 42.642 12.6844 42.8146 13.0204 42.936C13.3657 43.0573 13.7437 43.118 14.1544 43.118C14.5931 43.118 15.0177 43.0433 15.4284 42.894C15.8484 42.7446 16.1984 42.5486 16.4784 42.306L16.9684 43.118C16.8377 43.23 16.6744 43.3466 16.4784 43.468C16.2824 43.5893 16.0537 43.706 15.7924 43.818C15.5404 43.9206 15.2557 44.0046 14.9384 44.07C14.6304 44.1353 14.2944 44.168 13.9304 44.168C13.3237 44.168 12.7871 44.084 12.3204 43.916C11.8631 43.7386 11.4804 43.4913 11.1724 43.174C10.8644 42.8473 10.6311 42.46 10.4724 42.012C10.3137 41.5546 10.2344 41.0506 10.2344 40.5C10.2344 39.912 10.3137 39.3893 10.4724 38.932C10.6404 38.4746 10.8784 38.092 11.1864 37.784C11.4944 37.476 11.8677 37.2426 12.3064 37.084C12.7451 36.916 13.2351 36.832 13.7764 36.832C14.4671 36.832 15.0271 36.8926 15.4564 37.014C15.8951 37.1353 16.2637 37.2706 16.5624 37.42L16.5484 37.462V39.408H15.5404V38.078Z" fill="white"/>
<path d="M23.8649 40.892H20.0989V44H19.0209V37H20.0989V39.912H23.8649V37H24.9569V44H23.8649V40.892Z" fill="white"/>
<path d="M26.9815 40.5C26.9815 39.3706 27.2755 38.4793 27.8635 37.826C28.4515 37.1633 29.2915 36.832 30.3835 36.832C30.9715 36.832 31.4755 36.93 31.8955 37.126C32.3248 37.3126 32.6795 37.5693 32.9595 37.896C33.2395 38.2226 33.4448 38.61 33.5755 39.058C33.7155 39.506 33.7855 39.9866 33.7855 40.5C33.7855 41.06 33.7108 41.5686 33.5615 42.026C33.4121 42.474 33.1928 42.8566 32.9035 43.174C32.6141 43.4913 32.2548 43.7386 31.8255 43.916C31.4055 44.084 30.9248 44.168 30.3835 44.168C29.8048 44.168 29.3008 44.0746 28.8715 43.888C28.4421 43.692 28.0875 43.4306 27.8075 43.104C27.5275 42.7773 27.3175 42.39 27.1775 41.942C27.0468 41.494 26.9815 41.0133 26.9815 40.5ZM28.1435 40.5C28.1435 40.8266 28.1808 41.1533 28.2555 41.48C28.3395 41.8066 28.4701 42.1006 28.6475 42.362C28.8248 42.6233 29.0535 42.8333 29.3335 42.992C29.6228 43.1506 29.9728 43.23 30.3835 43.23C31.1301 43.23 31.6901 43.0013 32.0635 42.544C32.4461 42.0773 32.6375 41.396 32.6375 40.5C32.6375 40.164 32.5955 39.8373 32.5115 39.52C32.4368 39.1933 32.3061 38.8993 32.1195 38.638C31.9421 38.3766 31.7088 38.1666 31.4195 38.008C31.1395 37.8493 30.7941 37.77 30.3835 37.77C29.6368 37.77 29.0768 37.9986 28.7035 38.456C28.3301 38.9133 28.1435 39.5946 28.1435 40.5Z" fill="white"/>
<path d="M36.258 37.014C36.4353 37.0046 36.6127 36.9953 36.79 36.986C36.9673 36.9673 37.1587 36.9533 37.364 36.944C37.5693 36.9346 37.7887 36.9253 38.022 36.916C38.2647 36.9066 38.5353 36.902 38.834 36.902C39.842 36.902 40.57 37.0466 41.018 37.336C41.466 37.616 41.69 38.0406 41.69 38.61C41.69 38.9366 41.5827 39.2633 41.368 39.59C41.1533 39.9073 40.8033 40.136 40.318 40.276V40.332C40.934 40.4346 41.368 40.626 41.62 40.906C41.872 41.1766 41.998 41.55 41.998 42.026C41.998 42.754 41.6993 43.2813 41.102 43.608C40.514 43.9346 39.6553 44.098 38.526 44.098C38.078 44.098 37.6767 44.084 37.322 44.056C36.9673 44.0373 36.6127 44.014 36.258 43.986V37.014ZM37.336 43.118C37.5507 43.1366 37.7653 43.1506 37.98 43.16C38.1947 43.1693 38.4373 43.174 38.708 43.174C39.436 43.174 39.9773 43.0853 40.332 42.908C40.696 42.7213 40.878 42.404 40.878 41.956C40.878 41.7786 40.8407 41.62 40.766 41.48C40.7007 41.34 40.584 41.2186 40.416 41.116C40.2573 41.0133 40.0473 40.934 39.786 40.878C39.5247 40.822 39.198 40.794 38.806 40.794H37.336V43.118ZM39.002 39.954C39.1887 39.954 39.3753 39.926 39.562 39.87C39.7487 39.8046 39.9167 39.7253 40.066 39.632C40.2247 39.5293 40.3507 39.4126 40.444 39.282C40.5373 39.142 40.584 38.9973 40.584 38.848C40.584 38.4653 40.444 38.1993 40.164 38.05C39.8933 37.9006 39.436 37.826 38.792 37.826C38.4373 37.826 38.1527 37.8306 37.938 37.84C37.7327 37.8493 37.532 37.8586 37.336 37.868V39.954H39.002Z" fill="white"/>
<path d="M49.0485 40.892H45.2825V44H44.2045V37H45.2825V39.912H49.0485V37H50.1405V44H49.0485V40.892Z" fill="white"/>
<path d="M52.8791 37.546C53.2804 37.3126 53.7331 37.1446 54.2371 37.042C54.7411 36.9393 55.2357 36.888 55.7211 36.888C56.1971 36.888 56.5844 36.9626 56.8831 37.112C57.1911 37.2613 57.4291 37.4573 57.5971 37.7C57.7744 37.9333 57.8911 38.204 57.9471 38.512C58.0124 38.8106 58.0451 39.114 58.0451 39.422C58.0451 39.7766 58.0357 40.1546 58.0171 40.556C57.9984 40.9573 57.9844 41.3586 57.9751 41.76C57.9751 42.2266 58.0031 42.67 58.0591 43.09H58.9971V44H57.1351L57.0091 42.95H56.9391C56.8831 43.034 56.7991 43.1413 56.6871 43.272C56.5751 43.4026 56.4257 43.5333 56.2391 43.664C56.0617 43.7853 55.8424 43.8926 55.5811 43.986C55.3197 44.0793 55.0117 44.126 54.6571 44.126C53.9664 44.126 53.4204 43.9486 53.0191 43.594C52.6177 43.2393 52.4171 42.754 52.4171 42.138C52.4171 41.662 52.5197 41.2653 52.7251 40.948C52.9397 40.6306 53.2431 40.388 53.6351 40.22C54.0271 40.052 54.4984 39.954 55.0491 39.926C55.6091 39.898 56.2344 39.9353 56.9251 40.038C56.9717 39.6086 56.9764 39.254 56.9391 38.974C56.9111 38.6846 56.8364 38.456 56.7151 38.288C56.6031 38.12 56.4397 38.0033 56.2251 37.938C56.0197 37.8633 55.7631 37.826 55.4551 37.826C55.0351 37.826 54.6337 37.8866 54.2511 38.008C53.8684 38.12 53.5277 38.2366 53.2291 38.358L52.8791 37.546ZM54.9371 43.188C55.1984 43.188 55.4411 43.146 55.6651 43.062C55.8891 42.978 56.0851 42.8706 56.2531 42.74C56.4211 42.6093 56.5611 42.4693 56.6731 42.32C56.7851 42.1613 56.8691 42.012 56.9251 41.872V40.892C56.4397 40.808 55.9917 40.766 55.5811 40.766C55.1704 40.766 54.8157 40.8126 54.5171 40.906C54.2184 40.99 53.9851 41.1253 53.8171 41.312C53.6491 41.4986 53.5651 41.7413 53.5651 42.04C53.5651 42.348 53.6677 42.6186 53.8731 42.852C54.0877 43.076 54.4424 43.188 54.9371 43.188Z" fill="white"/>
<path d="M65.5016 41.27H63.8216L62.0576 44H60.6576V43.062H61.3856L62.6596 41.158C62.4823 41.1113 62.3096 41.0366 62.1416 40.934C61.9736 40.822 61.8196 40.6866 61.6796 40.528C61.5489 40.36 61.4416 40.1686 61.3576 39.954C61.2829 39.73 61.2456 39.4826 61.2456 39.212C61.2456 38.792 61.3296 38.4326 61.4976 38.134C61.6656 37.826 61.8989 37.574 62.1976 37.378C62.4963 37.182 62.8509 37.042 63.2616 36.958C63.6723 36.8646 64.1249 36.818 64.6196 36.818C64.9743 36.818 65.3103 36.846 65.6276 36.902C65.9449 36.9486 66.2669 37 66.5936 37.056V44H65.5016V41.27ZM65.5016 40.43V37.938C65.3709 37.8913 65.2169 37.8493 65.0396 37.812C64.8623 37.7746 64.7083 37.756 64.5776 37.756C63.8683 37.756 63.3269 37.868 62.9536 38.092C62.5803 38.3066 62.3936 38.652 62.3936 39.128C62.3936 39.5106 62.5056 39.8093 62.7296 40.024C62.9536 40.2293 63.2243 40.3646 63.5416 40.43H65.5016Z" fill="white"/>
<path d="M82.6687 39.604L82.7107 38.68H82.6687L78.7347 44H77.7407V37H78.8327V41.522L78.7907 42.404H78.8467L82.7527 37H83.7607V44H82.6687V39.604Z" fill="white"/>
<path d="M91.0212 40.892H87.2552V44H86.1772V37H87.2552V39.912H91.0212V37H92.1132V44H91.0212V40.892Z" fill="white"/>
<path d="M95.9157 34.2H98.0717V36.958C98.2397 36.93 98.3891 36.9113 98.5197 36.902C98.6504 36.8926 98.7764 36.888 98.8977 36.888C99.7471 36.888 100.377 37.1586 100.788 37.7C101.198 38.232 101.404 39.1186 101.404 40.36C101.404 41.536 101.184 42.4646 100.746 43.146C100.316 43.8273 99.6817 44.168 98.8417 44.168C98.7577 44.168 98.6317 44.1586 98.4637 44.14C98.3051 44.1306 98.1744 44.1073 98.0717 44.07V46.8H97.0077V44.056C96.8491 44.112 96.681 44.1446 96.5037 44.154C96.3357 44.1633 96.1817 44.168 96.0417 44.168C95.2577 44.168 94.6651 43.8693 94.2637 43.272C93.8717 42.6746 93.6757 41.7506 93.6757 40.5C93.6757 39.3053 93.8997 38.4046 94.3477 37.798C94.7957 37.1913 95.4584 36.888 96.3357 36.888C96.597 36.888 96.8211 36.9066 97.0077 36.944V35.138H95.9157V34.2ZM98.6877 37.812C98.5757 37.812 98.4731 37.8166 98.3797 37.826C98.2957 37.826 98.1884 37.8446 98.0577 37.882V43.202C98.151 43.2206 98.2537 43.2346 98.3657 43.244C98.4871 43.244 98.6177 43.244 98.7577 43.244C99.2897 43.244 99.677 42.9966 99.9197 42.502C100.162 42.0073 100.284 41.2933 100.284 40.36C100.284 39.968 100.26 39.6133 100.214 39.296C100.167 38.9786 100.083 38.7126 99.9617 38.498C99.8404 38.274 99.677 38.106 99.4717 37.994C99.2664 37.8726 99.0051 37.812 98.6877 37.812ZM96.3217 43.244C96.4337 43.244 96.5457 43.2393 96.6577 43.23C96.7697 43.2206 96.8911 43.202 97.0217 43.174V37.868C96.9097 37.8493 96.8024 37.8353 96.6997 37.826C96.6064 37.8166 96.4897 37.812 96.3497 37.812C95.8457 37.812 95.4584 38.0313 95.1877 38.47C94.9264 38.8993 94.7957 39.576 94.7957 40.5C94.7957 40.892 94.8237 41.256 94.8797 41.592C94.9357 41.928 95.0244 42.222 95.1457 42.474C95.2671 42.7166 95.4211 42.908 95.6077 43.048C95.8037 43.1786 96.0417 43.244 96.3217 43.244Z" fill="white"/>
<path d="M103.246 37.546C103.648 37.3126 104.1 37.1446 104.604 37.042C105.108 36.9393 105.603 36.888 106.088 36.888C106.564 36.888 106.952 36.9626 107.25 37.112C107.558 37.2613 107.796 37.4573 107.964 37.7C108.142 37.9333 108.258 38.204 108.314 38.512C108.38 38.8106 108.412 39.114 108.412 39.422C108.412 39.7766 108.403 40.1546 108.384 40.556C108.366 40.9573 108.352 41.3586 108.342 41.76C108.342 42.2266 108.37 42.67 108.426 43.09H109.364V44H107.502L107.376 42.95H107.306C107.25 43.034 107.166 43.1413 107.054 43.272C106.942 43.4026 106.793 43.5333 106.606 43.664C106.429 43.7853 106.21 43.8926 105.948 43.986C105.687 44.0793 105.379 44.126 105.024 44.126C104.334 44.126 103.788 43.9486 103.386 43.594C102.985 43.2393 102.784 42.754 102.784 42.138C102.784 41.662 102.887 41.2653 103.092 40.948C103.307 40.6306 103.61 40.388 104.002 40.22C104.394 40.052 104.866 39.954 105.416 39.926C105.976 39.898 106.602 39.9353 107.292 40.038C107.339 39.6086 107.344 39.254 107.306 38.974C107.278 38.6846 107.204 38.456 107.082 38.288C106.97 38.12 106.807 38.0033 106.592 37.938C106.387 37.8633 106.13 37.826 105.822 37.826C105.402 37.826 105.001 37.8866 104.618 38.008C104.236 38.12 103.895 38.2366 103.596 38.358L103.246 37.546ZM105.304 43.188C105.566 43.188 105.808 43.146 106.032 43.062C106.256 42.978 106.452 42.8706 106.62 42.74C106.788 42.6093 106.928 42.4693 107.04 42.32C107.152 42.1613 107.236 42.012 107.292 41.872V40.892C106.807 40.808 106.359 40.766 105.948 40.766C105.538 40.766 105.183 40.8126 104.884 40.906C104.586 40.99 104.352 41.1253 104.184 41.312C104.016 41.4986 103.932 41.7413 103.932 42.04C103.932 42.348 104.035 42.6186 104.24 42.852C104.455 43.076 104.81 43.188 105.304 43.188Z" fill="white"/>
<path d="M252.81 32.2H260.09V34.762H259.054V33.236H257.024V40.964H258.564V42H254.322V40.964H255.862V33.236H253.846V34.762H252.81V32.2Z" fill="white"/>
<path d="M268.05 41.118C267.882 41.2673 267.682 41.4073 267.448 41.538C267.224 41.6686 266.977 41.7806 266.706 41.874C266.436 41.9673 266.151 42.0373 265.852 42.084C265.563 42.14 265.269 42.168 264.97 42.168C264.41 42.168 263.916 42.084 263.486 41.916C263.057 41.7386 262.698 41.4913 262.408 41.174C262.119 40.8473 261.9 40.46 261.75 40.012C261.601 39.564 261.526 39.06 261.526 38.5C261.526 37.912 261.606 37.3893 261.764 36.932C261.932 36.4746 262.17 36.092 262.478 35.784C262.786 35.476 263.16 35.2426 263.598 35.084C264.037 34.916 264.527 34.832 265.068 34.832C265.46 34.832 265.848 34.8833 266.23 34.986C266.613 35.0886 266.949 35.2846 267.238 35.574C267.537 35.854 267.766 36.246 267.924 36.75C268.083 37.2446 268.139 37.8886 268.092 38.682H262.674C262.674 39.522 262.898 40.152 263.346 40.572C263.804 40.9826 264.41 41.188 265.166 41.188C265.418 41.188 265.666 41.16 265.908 41.104C266.16 41.0386 266.398 40.964 266.622 40.88C266.846 40.796 267.042 40.7026 267.21 40.6C267.388 40.4973 267.523 40.404 267.616 40.32L268.05 41.118ZM265.096 35.756C264.788 35.756 264.494 35.7886 264.214 35.854C263.944 35.9193 263.701 36.0313 263.486 36.19C263.281 36.3393 263.108 36.54 262.968 36.792C262.838 37.0346 262.754 37.338 262.716 37.702H267.07C267.024 37.086 266.823 36.61 266.468 36.274C266.123 35.9286 265.666 35.756 265.096 35.756Z" fill="white"/>
<path d="M275.451 37.842L275.479 36.848H275.409L273.393 40.054H273.001L270.957 36.848H270.901L270.971 37.828V42H269.935V35H271.041L273.267 38.514H273.295L275.423 35H276.543V42H275.451V37.842Z" fill="white"/>
<path d="M278.945 35.546C279.347 35.3126 279.799 35.1446 280.303 35.042C280.807 34.9393 281.302 34.888 281.787 34.888C282.263 34.888 282.651 34.9626 282.949 35.112C283.257 35.2613 283.495 35.4573 283.663 35.7C283.841 35.9333 283.957 36.204 284.013 36.512C284.079 36.8106 284.111 37.114 284.111 37.422C284.111 37.7766 284.102 38.1546 284.083 38.556C284.065 38.9573 284.051 39.3586 284.041 39.76C284.041 40.2266 284.069 40.67 284.125 41.09H285.063V42H283.201L283.075 40.95H283.005C282.949 41.034 282.865 41.1413 282.753 41.272C282.641 41.4026 282.492 41.5333 282.305 41.664C282.128 41.7853 281.909 41.8926 281.647 41.986C281.386 42.0793 281.078 42.126 280.723 42.126C280.033 42.126 279.487 41.9486 279.085 41.594C278.684 41.2393 278.483 40.754 278.483 40.138C278.483 39.662 278.586 39.2653 278.791 38.948C279.006 38.6306 279.309 38.388 279.701 38.22C280.093 38.052 280.565 37.954 281.115 37.926C281.675 37.898 282.301 37.9353 282.991 38.038C283.038 37.6086 283.043 37.254 283.005 36.974C282.977 36.6846 282.903 36.456 282.781 36.288C282.669 36.12 282.506 36.0033 282.291 35.938C282.086 35.8633 281.829 35.826 281.521 35.826C281.101 35.826 280.7 35.8866 280.317 36.008C279.935 36.12 279.594 36.2366 279.295 36.358L278.945 35.546ZM281.003 41.188C281.265 41.188 281.507 41.146 281.731 41.062C281.955 40.978 282.151 40.8706 282.319 40.74C282.487 40.6093 282.627 40.4693 282.739 40.32C282.851 40.1613 282.935 40.012 282.991 39.872V38.892C282.506 38.808 282.058 38.766 281.647 38.766C281.237 38.766 280.882 38.8126 280.583 38.906C280.285 38.99 280.051 39.1253 279.883 39.312C279.715 39.4986 279.631 39.7413 279.631 40.04C279.631 40.348 279.734 40.6186 279.939 40.852C280.154 41.076 280.509 41.188 281.003 41.188Z" fill="white"/>
<path d="M286.556 35H293.5V37.618H292.548V35.952H290.574V41.062H292.268V42H287.732V41.062H289.482V35.952H287.508V37.618H286.556V35Z" fill="white"/>
<path d="M300.341 37.604L300.383 36.68H300.341L296.407 42H295.413V35H296.505V39.522L296.463 40.404H296.519L300.425 35H301.433V42H300.341V37.604Z" fill="white"/>
<path d="M305.991 38.836H305.221V42H304.143V35H305.221V37.996H305.991L308.749 35H310.065L306.971 38.318L309.519 41.062H310.429V42H308.987L305.991 38.836Z" fill="white"/>
<path d="M312.524 35.546C312.925 35.3126 313.378 35.1446 313.882 35.042C314.386 34.9393 314.88 34.888 315.366 34.888C315.842 34.888 316.229 34.9626 316.528 35.112C316.836 35.2613 317.074 35.4573 317.242 35.7C317.419 35.9333 317.536 36.204 317.592 36.512C317.657 36.8106 317.69 37.114 317.69 37.422C317.69 37.7766 317.68 38.1546 317.662 38.556C317.643 38.9573 317.629 39.3586 317.62 39.76C317.62 40.2266 317.648 40.67 317.704 41.09H318.642V42H316.78L316.654 40.95H316.584C316.528 41.034 316.444 41.1413 316.332 41.272C316.22 41.4026 316.07 41.5333 315.884 41.664C315.706 41.7853 315.487 41.8926 315.226 41.986C314.964 42.0793 314.656 42.126 314.302 42.126C313.611 42.126 313.065 41.9486 312.664 41.594C312.262 41.2393 312.062 40.754 312.062 40.138C312.062 39.662 312.164 39.2653 312.37 38.948C312.584 38.6306 312.888 38.388 313.28 38.22C313.672 38.052 314.143 37.954 314.694 37.926C315.254 37.898 315.879 37.9353 316.57 38.038C316.616 37.6086 316.621 37.254 316.584 36.974C316.556 36.6846 316.481 36.456 316.36 36.288C316.248 36.12 316.084 36.0033 315.87 35.938C315.664 35.8633 315.408 35.826 315.1 35.826C314.68 35.826 314.278 35.8866 313.896 36.008C313.513 36.12 313.172 36.2366 312.874 36.358L312.524 35.546ZM314.582 41.188C314.843 41.188 315.086 41.146 315.31 41.062C315.534 40.978 315.73 40.8706 315.898 40.74C316.066 40.6093 316.206 40.4693 316.318 40.32C316.43 40.1613 316.514 40.012 316.57 39.872V38.892C316.084 38.808 315.636 38.766 315.226 38.766C314.815 38.766 314.46 38.8126 314.162 38.906C313.863 38.99 313.63 39.1253 313.462 39.312C313.294 39.4986 313.21 39.7413 313.21 40.04C313.21 40.348 313.312 40.6186 313.518 40.852C313.732 41.076 314.087 41.188 314.582 41.188Z" fill="white"/>
<path d="M475.176 43.974H474.196V42H468.092V43.974H467.112V40.964H468.05C468.087 40.852 468.171 40.6046 468.302 40.222C468.442 39.8393 468.582 39.298 468.722 38.598C468.871 37.898 469.007 37.0206 469.128 35.966C469.249 34.9113 469.31 33.656 469.31 32.2H474.126V40.964H475.176V43.974ZM472.964 40.964V33.236H470.402C470.374 34.2626 470.313 35.1866 470.22 36.008C470.136 36.8293 470.038 37.5573 469.926 38.192C469.814 38.8266 469.697 39.3726 469.576 39.83C469.464 40.2873 469.366 40.6653 469.282 40.964H472.964Z" fill="white"/>
<path d="M476.906 35.546C477.308 35.3126 477.76 35.1446 478.264 35.042C478.768 34.9393 479.263 34.888 479.748 34.888C480.224 34.888 480.612 34.9626 480.91 35.112C481.218 35.2613 481.456 35.4573 481.624 35.7C481.802 35.9333 481.918 36.204 481.974 36.512C482.04 36.8106 482.072 37.114 482.072 37.422C482.072 37.7766 482.063 38.1546 482.044 38.556C482.026 38.9573 482.012 39.3586 482.002 39.76C482.002 40.2266 482.03 40.67 482.086 41.09H483.024V42H481.162L481.036 40.95H480.966C480.91 41.034 480.826 41.1413 480.714 41.272C480.602 41.4026 480.453 41.5333 480.266 41.664C480.089 41.7853 479.87 41.8926 479.608 41.986C479.347 42.0793 479.039 42.126 478.684 42.126C477.994 42.126 477.448 41.9486 477.046 41.594C476.645 41.2393 476.444 40.754 476.444 40.138C476.444 39.662 476.547 39.2653 476.752 38.948C476.967 38.6306 477.27 38.388 477.662 38.22C478.054 38.052 478.526 37.954 479.076 37.926C479.636 37.898 480.262 37.9353 480.952 38.038C480.999 37.6086 481.004 37.254 480.966 36.974C480.938 36.6846 480.864 36.456 480.742 36.288C480.63 36.12 480.467 36.0033 480.252 35.938C480.047 35.8633 479.79 35.826 479.482 35.826C479.062 35.826 478.661 35.8866 478.278 36.008C477.896 36.12 477.555 36.2366 477.256 36.358L476.906 35.546ZM478.964 41.188C479.226 41.188 479.468 41.146 479.692 41.062C479.916 40.978 480.112 40.8706 480.28 40.74C480.448 40.6093 480.588 40.4693 480.7 40.32C480.812 40.1613 480.896 40.012 480.952 39.872V38.892C480.467 38.808 480.019 38.766 479.608 38.766C479.198 38.766 478.843 38.8126 478.544 38.906C478.246 38.99 478.012 39.1253 477.844 39.312C477.676 39.4986 477.592 39.7413 477.592 40.04C477.592 40.348 477.695 40.6186 477.9 40.852C478.115 41.076 478.47 41.188 478.964 41.188Z" fill="white"/>
<path d="M484.517 35H491.461V37.618H490.509V35.952H488.535V41.062H490.229V42H485.693V41.062H487.443V35.952H485.469V37.618H484.517V35Z" fill="white"/>
<path d="M493.695 35.546C494.097 35.3126 494.549 35.1446 495.053 35.042C495.557 34.9393 496.052 34.888 496.537 34.888C497.013 34.888 497.401 34.9626 497.699 35.112C498.007 35.2613 498.245 35.4573 498.413 35.7C498.591 35.9333 498.707 36.204 498.763 36.512C498.829 36.8106 498.861 37.114 498.861 37.422C498.861 37.7766 498.852 38.1546 498.833 38.556C498.815 38.9573 498.801 39.3586 498.791 39.76C498.791 40.2266 498.819 40.67 498.875 41.09H499.813V42H497.951L497.825 40.95H497.755C497.699 41.034 497.615 41.1413 497.503 41.272C497.391 41.4026 497.242 41.5333 497.055 41.664C496.878 41.7853 496.659 41.8926 496.397 41.986C496.136 42.0793 495.828 42.126 495.473 42.126C494.783 42.126 494.237 41.9486 493.835 41.594C493.434 41.2393 493.233 40.754 493.233 40.138C493.233 39.662 493.336 39.2653 493.541 38.948C493.756 38.6306 494.059 38.388 494.451 38.22C494.843 38.052 495.315 37.954 495.865 37.926C496.425 37.898 497.051 37.9353 497.741 38.038C497.788 37.6086 497.793 37.254 497.755 36.974C497.727 36.6846 497.653 36.456 497.531 36.288C497.419 36.12 497.256 36.0033 497.041 35.938C496.836 35.8633 496.579 35.826 496.271 35.826C495.851 35.826 495.45 35.8866 495.067 36.008C494.685 36.12 494.344 36.2366 494.045 36.358L493.695 35.546ZM495.753 41.188C496.015 41.188 496.257 41.146 496.481 41.062C496.705 40.978 496.901 40.8706 497.069 40.74C497.237 40.6093 497.377 40.4693 497.489 40.32C497.601 40.1613 497.685 40.012 497.741 39.872V38.892C497.256 38.808 496.808 38.766 496.397 38.766C495.987 38.766 495.632 38.8126 495.333 38.906C495.035 38.99 494.801 39.1253 494.633 39.312C494.465 39.4986 494.381 39.7413 494.381 40.04C494.381 40.348 494.484 40.6186 494.689 40.852C494.904 41.076 495.259 41.188 495.753 41.188Z" fill="white"/>
<path d="M515.091 37.604L515.133 36.68H515.091L511.157 42H510.163V35H511.255V39.522L511.213 40.404H511.269L515.175 35H516.183V42H515.091V37.604Z" fill="white"/>
<path d="M531.726 35.952H529.304C529.266 36.8013 529.22 37.5993 529.164 38.346C529.108 39.0833 529 39.7273 528.842 40.278C528.692 40.8286 528.473 41.2626 528.184 41.58C527.904 41.8973 527.521 42.056 527.036 42.056C526.849 42.056 526.714 42.0466 526.63 42.028C526.546 42.0093 526.443 41.9766 526.322 41.93L526.504 40.894C526.681 40.9406 526.844 40.964 526.994 40.964C527.152 40.964 527.292 40.908 527.414 40.796C527.535 40.684 527.642 40.5066 527.736 40.264C527.838 40.012 527.922 39.662 527.988 39.214C528.062 38.7566 528.123 38.1873 528.17 37.506C528.216 36.8153 528.254 35.98 528.282 35H532.818V42H531.726V35.952Z" fill="white"/>
<path d="M534.954 38.5C534.954 37.3706 535.248 36.4793 535.836 35.826C536.424 35.1633 537.264 34.832 538.356 34.832C538.944 34.832 539.448 34.93 539.868 35.126C540.297 35.3126 540.652 35.5693 540.932 35.896C541.212 36.2226 541.417 36.61 541.548 37.058C541.688 37.506 541.758 37.9866 541.758 38.5C541.758 39.06 541.683 39.5686 541.534 40.026C541.385 40.474 541.165 40.8566 540.876 41.174C540.587 41.4913 540.227 41.7386 539.798 41.916C539.378 42.084 538.897 42.168 538.356 42.168C537.777 42.168 537.273 42.0746 536.844 41.888C536.415 41.692 536.06 41.4306 535.78 41.104C535.5 40.7773 535.29 40.39 535.15 39.942C535.019 39.494 534.954 39.0133 534.954 38.5ZM536.116 38.5C536.116 38.8266 536.154 39.1533 536.228 39.48C536.312 39.8066 536.443 40.1006 536.62 40.362C536.797 40.6233 537.026 40.8333 537.306 40.992C537.595 41.1506 537.945 41.23 538.356 41.23C539.103 41.23 539.663 41.0013 540.036 40.544C540.419 40.0773 540.61 39.396 540.61 38.5C540.61 38.164 540.568 37.8373 540.484 37.52C540.409 37.1933 540.279 36.8993 540.092 36.638C539.915 36.3766 539.681 36.1666 539.392 36.008C539.112 35.8493 538.767 35.77 538.356 35.77C537.609 35.77 537.049 35.9986 536.676 36.456C536.303 36.9133 536.116 37.5946 536.116 38.5Z" fill="white"/>
<path d="M545.925 38.836H545.155V42H544.077V35H545.155V37.996H545.925L548.683 35H549.999L546.905 38.318L549.453 41.062H550.363V42H548.921L545.925 38.836Z" fill="white"/>
<path d="M552.457 35.546C552.859 35.3126 553.311 35.1446 553.815 35.042C554.319 34.9393 554.814 34.888 555.299 34.888C555.775 34.888 556.163 34.9626 556.461 35.112C556.769 35.2613 557.007 35.4573 557.175 35.7C557.352 35.9333 557.469 36.204 557.525 36.512C557.591 36.8106 557.623 37.114 557.623 37.422C557.623 37.7766 557.614 38.1546 557.595 38.556C557.577 38.9573 557.562 39.3586 557.553 39.76C557.553 40.2266 557.581 40.67 557.637 41.09H558.575V42H556.713L556.587 40.95H556.517C556.461 41.034 556.377 41.1413 556.265 41.272C556.153 41.4026 556.004 41.5333 555.817 41.664C555.64 41.7853 555.421 41.8926 555.159 41.986C554.898 42.0793 554.59 42.126 554.235 42.126C553.544 42.126 552.998 41.9486 552.597 41.594C552.196 41.2393 551.995 40.754 551.995 40.138C551.995 39.662 552.098 39.2653 552.303 38.948C552.518 38.6306 552.821 38.388 553.213 38.22C553.605 38.052 554.077 37.954 554.627 37.926C555.187 37.898 555.812 37.9353 556.503 38.038C556.55 37.6086 556.555 37.254 556.517 36.974C556.489 36.6846 556.415 36.456 556.293 36.288C556.181 36.12 556.018 36.0033 555.803 35.938C555.598 35.8633 555.341 35.826 555.033 35.826C554.613 35.826 554.212 35.8866 553.829 36.008C553.446 36.12 553.106 36.2366 552.807 36.358L552.457 35.546ZM554.515 41.188C554.777 41.188 555.019 41.146 555.243 41.062C555.467 40.978 555.663 40.8706 555.831 40.74C555.999 40.6093 556.139 40.4693 556.251 40.32C556.363 40.1613 556.447 40.012 556.503 39.872V38.892C556.018 38.808 555.57 38.766 555.159 38.766C554.749 38.766 554.394 38.8126 554.095 38.906C553.797 38.99 553.563 39.1253 553.395 39.312C553.227 39.4986 553.143 39.7413 553.143 40.04C553.143 40.348 553.246 40.6186 553.451 40.852C553.666 41.076 554.021 41.188 554.515 41.188Z" fill="white"/>
<path d="M567.53 43.68H566.578V42H560.6V35H561.678V41.048H565.29V35H566.382V41.048H567.53V43.68Z" fill="white"/>
<path d="M573.852 37.604L573.894 36.68H573.852L569.918 42H568.924V35H570.016V39.522L569.974 40.404H570.03L573.936 35H574.944V42H573.852V37.604Z" fill="white"/>
<path d="M581.869 39.27H580.189L578.425 42H577.025V41.062H577.753L579.027 39.158C578.849 39.1113 578.677 39.0366 578.509 38.934C578.341 38.822 578.187 38.6866 578.047 38.528C577.916 38.36 577.809 38.1686 577.725 37.954C577.65 37.73 577.613 37.4826 577.613 37.212C577.613 36.792 577.697 36.4326 577.865 36.134C578.033 35.826 578.266 35.574 578.565 35.378C578.863 35.182 579.218 35.042 579.629 34.958C580.039 34.8646 580.492 34.818 580.987 34.818C581.341 34.818 581.677 34.846 581.995 34.902C582.312 34.9486 582.634 35 582.961 35.056V42H581.869V39.27ZM581.869 38.43V35.938C581.738 35.8913 581.584 35.8493 581.407 35.812C581.229 35.7746 581.075 35.756 580.945 35.756C580.235 35.756 579.694 35.868 579.321 36.092C578.947 36.3066 578.761 36.652 578.761 37.128C578.761 37.5106 578.873 37.8093 579.097 38.024C579.321 38.2293 579.591 38.3646 579.909 38.43H581.869Z" fill="white"/>
</svg>
