<svg width="40" height="40" viewBox="0 0 40 40" fill="none" xmlns="http://www.w3.org/2000/svg">
<path d="M29.579 14.806C29.719 14.341 29.579 14 28.917 14H26.724C26.166 14 25.911 14.295 25.771 14.619C25.771 14.619 24.656 17.338 23.076 19.101C22.566 19.614 22.333 19.776 22.055 19.776C21.916 19.776 21.714 19.614 21.714 19.149V14.806C21.714 14.248 21.553 14 21.088 14H17.642C17.294 14 17.084 14.258 17.084 14.504C17.084 15.032 17.874 15.154 17.955 16.642V19.87C17.955 20.577 17.828 20.706 17.548 20.706C16.805 20.706 14.997 17.977 13.924 14.853C13.715 14.246 13.504 14.001 12.944 14.001H10.752C10.125 14.001 10 14.296 10 14.62C10 15.202 10.743 18.082 13.461 21.891C15.273 24.492 17.824 25.902 20.148 25.902C21.541 25.902 21.713 25.589 21.713 25.049V23.083C21.713 22.457 21.846 22.331 22.287 22.331C22.611 22.331 23.169 22.495 24.47 23.748C25.956 25.234 26.202 25.901 27.037 25.901H29.229C29.855 25.901 30.168 25.588 29.988 24.97C29.791 24.355 29.081 23.46 28.139 22.401C27.627 21.797 26.862 21.147 26.629 20.822C26.304 20.403 26.398 20.218 26.629 19.846C26.63 19.847 29.301 16.085 29.579 14.806V14.806Z" fill="white"/>
<rect x="1.5" y="1.5" width="37" height="37" rx="18.5" stroke="white" stroke-width="3"/>
</svg>
